<?xml version="1.0" encoding="UTF-8" standalone="no"?><!DOCTYPE svg PUBLIC "-//W3C//DTD SVG 1.1//EN" "http://www.w3.org/Graphics/SVG/1.1/DTD/svg11.dtd"><svg width="100%" height="100%" viewBox="0 0 260 580" version="1.1" xmlns="http://www.w3.org/2000/svg" xmlns:xlink="http://www.w3.org/1999/xlink" xml:space="preserve" xmlns:serif="http://www.serif.com/" style="fill-rule:evenodd;clip-rule:evenodd;stroke-linecap:round;stroke-linejoin:round;stroke-miterlimit:1.5;"><g><rect x="124.135" y="-7.569" width="18.241" height="198.047"/><path d="M85.859,244.147l-1.477,-6.767l3.815,-8.983l-1.354,-4.43l3.445,-4.306l-0.123,-4.184l3.446,-6.399l-1.354,-5.537l3.076,-6.398l5.784,-1.723l3.691,-5.414l6.399,-4.922l17.596,-2.215l27.316,1.107l7.014,6.03l5.414,0.738l4.184,7.506l4.061,11.567l1.353,7.752l2.707,10.705l0,10.213l-2.338,8.121l-40.483,-4.676l-25.963,0.739l-26.209,1.476Z"/><path d="M65.227,341.893c-60.118,35.888 -79.76,113.715 -43.872,173.832c35.863,60.078 113.755,79.736 173.832,43.872c60.077,-35.863 79.735,-113.755 43.872,-173.832c-10.079,-16.883 -23.946,-31.19 -40.506,-41.79c16.56,10.6 30.427,24.907 40.506,41.79c35.863,60.077 16.205,137.969 -43.872,173.832c-60.077,35.864 -137.969,16.206 -173.832,-43.872c-35.888,-60.117 -16.246,-137.944 43.872,-173.832Z" style="fill:none;stroke:#000;stroke-width:2.72px;"/><path d="M176.808,244.043c-0,0 9.494,1.425 3.984,44.819c-1.823,14.364 11.447,52.323 17.427,54.922" style="fill:none;stroke:#000;stroke-width:2.72px;"/><path d="M86.427,242.233c0,0 -9.494,1.424 -3.985,44.819c1.824,14.364 -11.446,52.323 -17.426,54.921" style="fill:none;stroke:#000;stroke-width:2.72px;"/></g></svg>