<?xml version="1.0" encoding="UTF-8" standalone="no"?><!DOCTYPE svg PUBLIC "-//W3C//DTD SVG 1.1//EN" "http://www.w3.org/Graphics/SVG/1.1/DTD/svg11.dtd"><svg width="100%" height="100%" viewBox="0 0 760 916" version="1.1" xmlns="http://www.w3.org/2000/svg" xmlns:xlink="http://www.w3.org/1999/xlink" xml:space="preserve" xmlns:serif="http://www.serif.com/" style="fill-rule:evenodd;clip-rule:evenodd;stroke-linejoin:round;stroke-miterlimit:2;"><path d="M-182.572,610.037c0,0 336.13,-166.777 412.706,-31.957c68.431,120.479 209.899,89.65 243.54,77.112c12.916,-4.814 45.324,-22.456 51.627,-27.831c58.698,-50.057 102.783,-87.736 202.915,-61.571c92.187,29.064 192.75,67.202 255.228,64.082c11.03,1.582 24.201,-15.779 38.752,-52.993c85.981,-219.889 385.857,-469.07 159.433,177.632l-23.807,198.799l-1437.19,-8.706l96.795,-334.567" style="fill:#423f3e;"/><path d="M21.387,462.175c0,-0 0.188,6.439 2.912,5.989c-0,0 1.86,7.038 8.299,6.85c-0,0 0.981,7.008 4.75,8.659c0,0 -3.381,3.88 1.727,18.95c0,0 -6.044,9.74 -6.625,17.88l-3.436,2.49l0.784,5.816l-2.081,6.463l3.903,6.701c-0,-0 16.093,-6.327 17.821,-5.388l-8.327,-7.02l6.127,-16.923c0,0 6.555,-1.605 3.596,-13.183l1.269,-12.449l5.846,-1.664c-0,-0 4.124,10.161 13.766,11.369c-0,-0 4.741,13.906 10.517,20.298l2.077,12.597c0,-0 18.22,10.809 26.493,-0.523c0,0 -1.177,-8.199 -14.815,-11.37c0,-0 -1.807,-4.598 -3.538,-4.488l-2.992,-8.599l13.575,7.029l38.68,4.461l-20.371,-30.213l-40.353,-22.022c0,-0 -2.499,-2.429 2.299,-5.144c0,-0 13.517,-9.224 -2.637,-17.051c-0,-0 -1.976,-5.62 -7.76,-6.764l-0.665,-1.19c-0,0 22.199,-0.863 18.4,-18.597c-0,-0 1.402,-10.047 -2.137,-12.508c-0,0 0.938,-7.294 -1.556,-9.39c-0,0 -15.051,-20.437 -37.878,2.129c-0,0 -15.426,18.043 8.04,35.471l-2.471,0.218c-2.453,-0.759 -11.585,-10.533 -16.095,2.834l-6.816,2.646l-19.986,-10.849c-0,0 -21.179,0.785 -14.95,21.177l24.608,15.308Z" style="fill:#423f3e;"/><path d="M378.134,670.918l-0,-36.017l-3.82,-6.185l1.819,-6.548l-23.466,10.005l-1.637,-2.183l8.549,-8.914l-23.465,-1.273l-0,-3.456l16.917,-5.093l7.458,-9.46l-30.015,-0.363l21.465,-13.461l7.822,-8.504l-16.553,-0.728l15.28,-16.917l-8.732,-0l-0.545,-3.638l19.282,-6.64l11.096,-32.288l11.642,32.197l20.373,16.554l-1.091,3.274l-15.28,-2.911l8.549,12.916l13.097,8.367l0,3.82l-16.189,-4.002l13.643,15.099l-13.643,0.545l17.645,13.825l-33.107,1.637l0.546,32.197l2.364,8.004l-1.637,10.551c0,-0 -10.004,1.364 -8.367,-0.41Z" style="fill:#423f3e;"/><path d="M660.211,567.067l-4.244,-28.971l-3.801,-4.525l0.691,-5.482l-17.696,10.813l-1.574,-1.563l5.827,-8.177l-19.026,1.74l-0.407,-2.78l13.008,-6.09l4.884,-8.487l-24.186,3.244l15.68,-13.357l5.29,-7.762l-13.401,1.365l10.298,-15.408l-7.024,1.028l-0.867,-2.862l14.727,-7.612l5.121,-27.28l13.158,24.527l18.339,10.915l-0.492,2.762l-12.634,-0.541l8.399,9.382l11.521,5.187l0.45,3.073l-13.494,-1.312l12.753,10.537l-10.91,2.047l15.822,9.041l-26.437,5.218l4.232,25.834l2.846,6.16l-0.074,8.679c-0,0 -7.887,2.277 -6.779,0.657Z" style="fill:#423f3e;"/><path d="M142.373,516.936c0,-0 13.745,-7.358 31.337,-11.178c10.237,-2.223 21.785,-3.233 32.686,-0.822c9.324,2.063 18.14,6.682 25.248,15.307c2.56,3.105 4.922,6.711 6.989,10.917c7.575,15.106 17.578,21.186 28.53,22.276c14.537,1.446 30.828,-6.303 45.472,-13.213c6.612,-3.12 12.905,-6.003 18.459,-7.831c6.221,-2.048 11.475,-2.779 15.177,-0.411c4.787,3.058 11.402,9.175 18.547,15.179c6.603,5.548 13.648,10.998 19.879,14.237c5.992,3.115 11.348,4.091 15.131,1.665c1.702,-1.092 3.136,-2.866 4.156,-5.523c0.212,-0.553 0.298,-1.674 0.061,-2.955c-0.224,-1.212 -0.703,-2.581 -1.488,-3.672c-0.559,-0.778 -1.428,-1.192 -2.479,-1.281c-1.518,-0.128 -3.477,0.46 -4.722,0.876c-0.592,0.193 -0.916,0.831 -0.722,1.423c0.193,0.591 0.83,0.915 1.422,0.722c0.751,-0.241 1.806,-0.576 2.813,-0.694c0.712,-0.083 1.424,-0.174 1.756,0.311c0.459,0.669 0.75,1.478 0.922,2.239c0.206,0.907 0.274,1.74 0.122,2.113c-2.788,6.821 -8.683,5.939 -15.604,2.197c-6.018,-3.254 -12.732,-8.738 -19.183,-14.122c-7.281,-6.078 -14.225,-12.038 -19.147,-15.054c-4.302,-2.632 -10.314,-2.004 -17.416,0.454c-5.599,1.938 -11.901,5.009 -18.62,8.126c-14.19,6.582 -30.161,13.633 -44.168,11.906c-9.848,-1.214 -18.641,-7.018 -25.153,-20.792c-2.195,-4.545 -4.687,-8.466 -7.45,-11.805c-7.777,-9.395 -17.509,-14.337 -27.719,-16.419c-11.457,-2.336 -23.547,-1.032 -34.209,1.559c-17.887,4.345 -31.722,12.293 -31.722,12.293c-0.544,0.302 -0.741,0.989 -0.439,1.533c0.303,0.544 0.99,0.741 1.534,0.439Z" style="fill:#fff;"/><path d="M346.233,570.917c0,0 1.473,1.137 3.782,3.181c4.401,3.898 11.819,11.136 20.764,15.936c5.338,2.865 11.142,4.852 16.84,5.291c2.685,0.207 5.349,0.057 7.971,-0.526c1.718,-0.382 3.415,-0.942 5.092,-1.721c5.031,-2.337 9.827,-6.68 14.037,-13.927c0.309,-0.579 0.31,-1.273 0.002,-1.853c-0.307,-0.579 -0.883,-0.968 -1.535,-1.037c0,0 -1.951,-0.292 -4.106,-0.4c-0.968,-0.048 -1.974,-0.043 -2.873,0.02c-1.229,0.13 -2.12,1.234 -1.99,2.463c0.131,1.229 1.235,2.121 2.464,1.99c0.926,-0.134 1.997,-0.189 2.975,-0.202c0.027,-0 0.054,-0.001 0.082,-0.001c-2.989,5.196 -6.427,8.644 -10.197,10.661c-1.455,0.779 -2.951,1.352 -4.478,1.716c-2.367,0.563 -4.798,0.656 -7.223,0.4c-5.316,-0.561 -10.579,-2.883 -15.498,-5.695c-8.507,-4.862 -16.138,-11.305 -19.926,-15.531c-1.945,-2.171 -2.82,-3.723 -2.82,-3.723c-0.817,-0.928 -2.233,-1.019 -3.161,-0.202c-0.928,0.816 -1.018,2.232 -0.202,3.16Z" style="fill:#fff;"/></svg>