<?xml version="1.0" encoding="UTF-8" standalone="no"?><!DOCTYPE svg PUBLIC "-//W3C//DTD SVG 1.1//EN" "http://www.w3.org/Graphics/SVG/1.1/DTD/svg11.dtd"><svg width="100%" height="100%" viewBox="0 0 2560 1440" version="1.1" xmlns="http://www.w3.org/2000/svg" xmlns:xlink="http://www.w3.org/1999/xlink" xml:space="preserve" xmlns:serif="http://www.serif.com/" style="fill-rule:evenodd;clip-rule:evenodd;stroke-linecap:round;stroke-linejoin:round;stroke-miterlimit:1.5;"><path d="M1006.15,885.752c-0,-0 -7.673,-0.107 -19.676,0.688c-8.111,0.538 -18.204,1.523 -29.228,3.079c-22.962,3.241 -50.014,8.818 -71.618,18.554c-6.972,3.142 -13.366,6.743 -18.887,10.801c-3.756,2.76 -7.158,5.667 -9.978,8.884c-2.056,2.345 -4.469,4.507 -5.287,7.354c-0.573,1.994 0.007,3.127 -0.064,5.165c-0.008,0.244 -0.032,0.441 -0.096,0.676c-0.499,1.858 -1.367,3.56 -1.826,5.42l-0.84,4.917l1.668,-4.633c0.74,-1.663 1.288,-3.504 2.608,-4.769c1.553,-1.489 3.259,-1.07 5.026,-2.372c0.806,-0.594 1.364,-1.46 2.069,-2.197c5.421,-5.67 12.719,-10.297 21.181,-14.356c7.552,-3.622 15.976,-6.757 24.835,-9.418c19.756,-5.933 41.546,-9.537 59.775,-11.741c7.519,-0.909 14.432,-1.582 20.341,-2.143c12.338,-1.169 20.299,-1.676 20.299,-1.676c3.375,-0.084 6.048,-2.892 5.965,-6.268c-0.083,-3.376 -2.892,-6.049 -6.267,-5.965Z" style="fill:#fff;"/><path d="M978.806,837.432l-107.26,35.494" style="fill:none;stroke:#fff;stroke-width:12.24px;"/><path d="M-244.212,959.748c0,0 706.447,-350.517 867.389,-67.165c143.821,253.212 478.379,170.012 550.76,148.691c3.799,-1.119 15.266,-4.716 22.248,-8.809c8.854,-5.191 13.197,-11.181 15.245,-13.934c104.113,-139.955 248.122,-206.769 458.57,-151.778c193.749,61.083 405.103,141.238 536.415,134.682c23.182,3.325 50.862,-33.162 81.445,-111.376c180.707,-462.142 810.96,-985.849 335.081,373.331l-81.176,240.5l-2989.41,8.745l203.435,-552.887" style="fill:#423f3e;"/><path d="M184.452,648.984c-0,0 0.394,13.533 6.118,12.589c0,-0 3.91,14.79 17.443,14.396c-0,-0 2.061,14.727 9.984,18.198c-0,0 -7.108,8.155 3.629,39.828c-0,-0 -12.702,20.47 -13.924,37.577l-7.222,5.234l1.649,12.223l-4.375,13.584l8.203,14.083c0,-0 33.823,-13.296 37.456,-11.323l-17.501,-14.754l12.876,-35.567c0,0 13.777,-3.375 7.558,-27.707l2.667,-26.166l12.287,-3.496c-0,0 8.667,21.356 28.931,23.894c0,-0 9.966,29.227 22.104,42.66l4.367,26.476c-0,-0 38.292,22.717 55.68,-1.099c-0,0 -2.475,-17.232 -31.137,-23.897c-0,-0 -3.799,-9.664 -7.436,-9.432l-6.288,-18.073l28.529,14.773l81.296,9.377l-42.814,-63.5l-84.81,-46.284c-0,0 -5.253,-5.105 4.831,-10.811c0,-0 28.409,-19.386 -5.543,-35.837c0,0 -4.153,-11.81 -16.31,-14.215l-1.397,-2.5c0,-0 46.656,-1.815 38.672,-39.087c-0,0 2.947,-21.116 -4.492,-26.287c0,0 1.972,-15.331 -3.27,-19.735c-0,-0 -31.633,-42.953 -79.609,4.474c0,0 -32.421,37.921 16.898,74.549l-5.192,0.459c-5.156,-1.595 -24.35,-22.138 -33.828,5.956l-14.325,5.562l-42.005,-22.802c0,-0 -44.511,1.649 -31.421,44.508l51.721,32.172Z" style="fill:#423f3e;"/><path d="M934.228,1087.7l0,-75.697l-8.028,-12.999l3.823,-13.763l-49.318,21.027l-3.441,-4.588l17.968,-18.733l-49.318,-2.676l0,-7.264l35.555,-10.705l15.675,-19.88l-63.081,-0.765l45.112,-28.291l16.44,-17.873l-34.791,-1.529l32.115,-35.555l-18.351,-0l-1.147,-7.646l40.525,-13.955l23.321,-67.86l24.468,67.669l42.819,34.791l-2.294,6.881l-32.114,-6.117l17.968,27.144l27.527,17.587l-0,8.028l-34.026,-8.411l28.673,31.732l-28.673,1.147l37.084,29.056l-69.581,3.441l1.147,67.669l4.97,16.822l-3.44,22.174c-0,-0 -21.028,2.867 -17.587,-0.861Z" style="fill:#423f3e;"/><path d="M2350.93,778.841l-8.919,-60.889l-7.99,-9.51l1.454,-11.521l-37.193,22.724l-3.308,-3.284l12.246,-17.186l-39.986,3.658l-0.856,-5.843l27.338,-12.8l10.266,-17.838l-50.831,6.818l32.954,-28.072l11.118,-16.314l-28.165,2.869l21.642,-32.383l-14.761,2.162l-1.823,-6.015l30.953,-16l10.763,-57.333l27.655,51.549l38.541,22.939l-1.034,5.805l-26.553,-1.136l17.652,19.717l24.214,10.902l0.946,6.458l-28.36,-2.756l26.803,22.146l-22.929,4.301l33.253,19.002l-55.563,10.966l8.896,54.297l5.979,12.945l-0.154,18.242c-0,-0 -16.576,4.784 -14.248,1.38Z" style="fill:#423f3e;"/><g><path d="M1510.42,985.488l23.657,38.953l-20.802,45.479l86.676,-9.382l2.489,10.581l388.366,-42.944l0.449,10.943l13.444,0.13l-0.522,-9.136l39.581,-47.249l113.163,-10.181l-11.866,14.144c-0,0 -10.707,25.238 29.062,-14.53l180.169,-8.158l3.824,4.589c0,-0 -1.274,16.825 11.982,14.53c-0,0 14.531,-7.138 0.765,-16.315l-1.53,-4.844c0,0 52.196,-5.735 63.158,-22.561l2.295,22.434c-0,-0 12.746,32.374 3.059,-30.846c-0,-0 9.687,-4.842 -0.765,-11.215l-2.804,-30.081c-0,-0 -10.452,-25.748 -4.844,24.218c0,-0 -21.414,-7.903 -46.397,-7.393l-31.356,-19.12c0,0 1.275,-12.746 -18.609,-6.373l-167.36,43.848l-41.872,-28.807l-26.767,1.274c-0,0 24.218,55.575 24.728,63.732l-79.984,9.178l-49.073,-35.945l0.255,-9.178l-14.531,-0.254l1.02,13.511l-366.203,43.019l10.452,-6.119l-0,-3.314l-113.309,13.382Z" style="fill:#fff;"/><path d="M1989.96,939.576l9.993,86.675l39.973,-49.761l-49.966,-36.914" style="fill:#423f3e;"/></g><path d="M439.427,765.335c0,0 28.826,-15.078 65.615,-22.78c21.245,-4.447 45.166,-6.366 67.725,-1.258c19.034,4.311 36.971,13.825 51.487,31.46c5.25,6.378 10.133,13.753 14.393,22.378c16.632,32.589 38.391,45.576 62.118,47.765c30.894,2.852 65.331,-13.866 96.403,-28.605c13.826,-6.558 27.046,-12.497 38.691,-16.27c12.51,-4.052 23.065,-5.636 30.469,-0.835c9.975,6.453 23.666,19.407 38.598,31.981c13.976,11.768 28.992,23.2 42.224,29.997c13.309,6.837 25.218,8.704 33.565,3.275c3.813,-2.481 7.068,-6.452 9.321,-12.444c0.498,-1.325 0.772,-4.006 0.185,-7.064c-0.528,-2.749 -1.63,-5.853 -3.428,-8.317c-1.44,-1.974 -3.624,-3.089 -6.305,-3.3c-3.381,-0.267 -7.745,1.007 -10.511,1.946c-1.999,0.653 -3.092,2.806 -2.439,4.806c0.652,1.999 2.806,3.092 4.805,2.439c1.25,-0.399 2.908,-0.928 4.595,-1.231c0.8,-0.143 1.608,-0.218 2.36,-0.197c0.379,0.01 0.783,-0.153 0.968,0.121c0.665,0.984 1.111,2.139 1.435,3.271c0.534,1.862 0.827,3.671 0.513,4.423c-5.507,13.234 -17.017,10.904 -30.444,3.557c-12.513,-6.846 -26.412,-18.396 -39.871,-29.607c-15.394,-12.823 -30.194,-25.249 -40.626,-31.559c-9.43,-5.692 -22.547,-4.458 -38.032,0.982c-11.795,4.144 -25.045,10.718 -39.236,17.266c-29.538,13.63 -62.893,27.988 -91.995,24.19c-20,-2.611 -37.672,-14.661 -50.711,-42.752c-4.691,-9.769 -10.013,-18.212 -15.952,-25.378c-16.772,-20.236 -37.81,-30.833 -59.834,-35.217c-19.463,-3.874 -39.76,-2.836 -58.677,0.645c-44.424,8.174 -81.108,29.649 -81.108,29.649c-1.839,1.02 -2.503,3.342 -1.482,5.181c1.021,1.839 3.342,2.503 5.181,1.482Z" style="fill:#fff;"/><path d="M866.123,878.462c0,0 3.244,2.232 8.25,6.514c9.439,8.075 24.967,23.554 43.905,33.62c11.356,6.036 23.717,10.113 35.817,10.994c5.724,0.416 11.395,0.083 16.988,-1.146c3.671,-0.808 7.299,-1.985 10.895,-3.619c10.779,-4.897 21.086,-14.039 30.239,-29.406c0.844,-1.581 0.846,-3.478 0.006,-5.061c-0.84,-1.583 -2.412,-2.645 -4.194,-2.834c-0,0 -4.151,-0.67 -8.747,-0.955c-2.09,-0.13 -4.258,-0.126 -6.2,-0.012c-3.358,0.357 -5.795,3.373 -5.437,6.731c0.357,3.358 3.373,5.794 6.731,5.437c1.283,-0.201 2.701,-0.334 4.105,-0.414c-5.773,9.704 -12.354,16.303 -19.621,20.27c-2.989,1.631 -6.067,2.845 -9.217,3.602c-4.895,1.177 -9.931,1.352 -14.946,0.802c-11.056,-1.213 -21.936,-6.204 -32.149,-12.096c-17.741,-10.235 -33.848,-23.547 -41.613,-32.514c-4.011,-4.632 -5.625,-7.997 -5.625,-7.997c-2.231,-2.535 -6.1,-2.782 -8.636,-0.552c-2.535,2.231 -2.782,6.1 -0.551,8.636Zm-0,-0c-0,-0 -0,-0 -0,-0l-0,-0Z" style="fill:#fff;"/></svg>