<?xml version="1.0" encoding="UTF-8" standalone="no"?><!DOCTYPE svg PUBLIC "-//W3C//DTD SVG 1.1//EN" "http://www.w3.org/Graphics/SVG/1.1/DTD/svg11.dtd"><svg width="100%" height="100%" viewBox="0 0 2560 1440" version="1.1" xmlns="http://www.w3.org/2000/svg" xmlns:xlink="http://www.w3.org/1999/xlink" xml:space="preserve" xmlns:serif="http://www.serif.com/" style="fill-rule:evenodd;clip-rule:evenodd;stroke-linecap:round;stroke-linejoin:round;stroke-miterlimit:1.5;"><path d="M-176.6,472.689c-0,0 466.232,151.544 636.915,452.046c170.682,300.503 747.109,41.724 747.109,41.724c189.857,-125.545 500.351,-32.919 731.389,27.453c205.476,64.781 196.057,-54.583 335.317,-61.536c24.585,3.527 388.568,164.709 421.002,81.761l20.735,196.049l-86.09,255.057l-3170.35,9.275l363.973,-1001.83" style="fill:#423f3e;"/><path d="M718.327,1097.98l-0,-80.279l-8.515,-13.786l4.055,-14.596l-52.303,22.3l-3.649,-4.865l19.056,-19.868l-52.304,-2.838l0,-7.703l37.708,-11.353l16.623,-21.083l-66.9,-0.811l47.844,-30.004l17.434,-18.955l-36.896,-1.621l34.058,-37.707l-19.462,-0l-1.216,-8.11l42.978,-14.798l24.732,-71.968l25.949,71.765l45.411,36.896l-2.433,7.298l-34.058,-6.487l19.057,28.787l29.192,18.651l0,8.514l-36.085,-8.92l30.409,33.653l-30.409,1.216l39.329,30.814l-73.793,3.649l1.217,71.765l5.271,17.84l-3.649,23.516c-0,0 -22.3,3.041 -18.651,-0.912Z" style="fill:#423f3e;"/><path d="M2417.11,1008.73l0.854,-65.258l-6.775,-11.297l3.451,-11.822l-42.754,17.571l-2.915,-3.994l15.702,-15.947l-42.486,-2.863l0.081,-6.262l30.773,-8.828l13.737,-16.961l-54.373,-1.371l39.21,-23.881l14.374,-15.223l-29.976,-1.71l28.086,-30.29l-15.82,-0.207l-0.902,-6.604l35.093,-11.573l20.87,-58.239l20.331,58.613l36.521,30.475l-2.055,5.906l-27.616,-5.635l15.185,23.603l23.532,15.472l-0.091,6.921l-29.238,-7.635l24.361,27.679l-24.732,0.666l31.643,25.467l-60.024,2.182l0.226,58.349l4.095,14.558l-3.216,19.078c-0,-0 -18.16,2.235 -15.152,-0.94Z" style="fill:#423f3e;"/><g><path d="M2281.19,462.297l-19.023,41.414l25.891,42.787l-87.179,0.643l-1.257,10.797l-390.727,1.98l0.811,10.922l-13.339,1.675l-0.532,-9.136l-44.75,-42.387l-113.583,2.894l13.413,12.687c0,-0 13.537,23.84 -30.539,-11.094l-179.913,12.605l-3.272,4.998c0,-0 3.201,16.567 -10.231,15.812c-0,-0 -15.255,-5.421 -2.635,-16.12l0.962,-4.987c0,0 -52.509,0.302 -65.333,-15.152l0.3,22.549c-0,-0 -8.941,33.624 -6.585,-30.29c0,-0 -10.179,-3.696 -0.529,-11.229l-0.672,-30.204c0,-0 7.423,-26.779 7.595,23.501c0,-0 20.364,-10.312 45.24,-12.677l28.95,-22.597c0,-0 -2.731,-12.515 17.754,-8.47l171.291,24.32l38.283,-33.428l26.736,-1.811c0,0 -17.67,57.99 -17.238,66.152l80.508,-0.077l44.616,-41.347l-1.308,-9.087l14.406,-1.924l0.54,13.539l368.72,0.642l-11.086,-4.877l-0.381,-3.292l114.096,0.269Z" style="fill:#fff;"/><path d="M1799.55,471.809l0.036,87.25l-45.428,-44.838l45.392,-42.412" style="fill:#d93a3a;stroke:#d93a3a;stroke-width:1px;"/></g></svg>