<?xml version="1.0" encoding="UTF-8" standalone="no"?><!DOCTYPE svg PUBLIC "-//W3C//DTD SVG 1.1//EN" "http://www.w3.org/Graphics/SVG/1.1/DTD/svg11.dtd"><svg width="100%" height="100%" viewBox="0 0 2560 1440" version="1.1" xmlns="http://www.w3.org/2000/svg" xmlns:xlink="http://www.w3.org/1999/xlink" xml:space="preserve" xmlns:serif="http://www.serif.com/" style="fill-rule:evenodd;clip-rule:evenodd;stroke-linejoin:round;stroke-miterlimit:2;"><path d="M718.327,1180.58l-0,-80.279l-8.515,-13.786l4.055,-14.596l-52.303,22.3l-3.649,-4.865l19.056,-19.868l-52.304,-2.838l0,-7.703l37.708,-11.353l16.623,-21.083l-66.9,-0.811l47.844,-30.004l17.434,-18.955l-36.896,-1.621l34.058,-37.707l-19.462,-0l-1.216,-8.109l42.978,-14.799l24.732,-71.968l25.949,71.765l45.411,36.896l-2.433,7.298l-34.058,-6.487l19.057,28.787l29.192,18.651l0,8.514l-36.085,-8.92l30.409,33.653l-30.409,1.216l39.329,30.814l-73.793,3.649l1.217,71.765l5.271,17.84l-3.649,23.517c-0,-0 -22.3,3.04 -18.651,-0.913Z" style="fill:#423f3e;"/><path d="M2417.11,1091.33l0.854,-65.258l-6.775,-11.297l3.451,-11.822l-42.754,17.571l-2.915,-3.993l15.702,-15.948l-42.486,-2.863l0.081,-6.262l30.773,-8.828l13.737,-16.961l-54.373,-1.371l39.21,-23.881l14.374,-15.222l-29.976,-1.711l28.086,-30.29l-15.82,-0.206l-0.902,-6.605l35.093,-11.573l20.87,-58.239l20.331,58.613l36.521,30.475l-2.055,5.907l-27.616,-5.636l15.185,23.603l23.532,15.472l-0.091,6.921l-29.238,-7.634l24.361,27.679l-24.732,0.665l31.643,25.467l-60.024,2.182l0.226,58.35l4.095,14.557l-3.216,19.078c-0,-0 -18.16,2.235 -15.152,-0.94Z" style="fill:#423f3e;"/><path d="M-35.028,624.745c0,0 426.291,219.326 525.533,468.289c99.242,248.962 437.528,-84.634 816.493,-80.466c182.678,2.01 656.352,151.785 789.427,80.466c133.075,-71.319 266.15,-82.597 487.19,36.945c221.039,119.542 106.008,484.934 106.008,484.934l-2844.76,67.665l120.106,-1057.83Z" style="fill:#423f3e;"/></svg>