<?xml version="1.0" encoding="UTF-8" standalone="no"?><!DOCTYPE svg PUBLIC "-//W3C//DTD SVG 1.1//EN" "http://www.w3.org/Graphics/SVG/1.1/DTD/svg11.dtd"><svg width="100%" height="100%" viewBox="0 0 2560 1440" version="1.1" xmlns="http://www.w3.org/2000/svg" xmlns:xlink="http://www.w3.org/1999/xlink" xml:space="preserve" xmlns:serif="http://www.serif.com/" style="fill-rule:evenodd;clip-rule:evenodd;stroke-linecap:round;stroke-linejoin:round;stroke-miterlimit:1.5;"><path d="M1006.15,1006.9c-0,-0 -7.673,-0.107 -19.676,0.688c-8.111,0.538 -18.204,1.523 -29.228,3.079c-22.962,3.241 -50.014,8.819 -71.618,18.554c-6.972,3.142 -13.366,6.743 -18.887,10.801c-3.756,2.76 -7.158,5.668 -9.978,8.884c-2.056,2.345 -4.469,4.507 -5.287,7.354c-0.573,1.994 0.007,3.127 -0.064,5.165c-0.008,0.244 -0.032,0.441 -0.096,0.676c-0.499,1.858 -1.367,3.561 -1.826,5.42l-0.84,4.917l1.668,-4.633c0.74,-1.663 1.288,-3.503 2.608,-4.768c1.553,-1.49 3.259,-1.07 5.026,-2.373c0.806,-0.594 1.364,-1.459 2.069,-2.197c5.421,-5.669 12.719,-10.296 21.181,-14.355c7.552,-3.623 15.976,-6.758 24.835,-9.419c19.756,-5.933 41.546,-9.536 59.775,-11.74c7.519,-0.909 14.432,-1.583 20.341,-2.143c12.338,-1.17 20.299,-1.677 20.299,-1.677c3.375,-0.083 6.048,-2.892 5.965,-6.268c-0.083,-3.375 -2.892,-6.048 -6.267,-5.965Z" style="fill:#fff;"/><path d="M978.806,958.577l-107.26,35.494" style="fill:none;stroke:#fff;stroke-width:12.24px;"/><path d="M-244.212,1080.89c0,-0 706.447,-350.518 867.389,-67.166c143.821,253.213 429.578,186.927 498.729,156.732c71.629,-31.277 129.572,-85.073 184.92,-139.11c149.096,-145.561 337.653,-84.057 392.044,-66.909c193.75,61.083 363.031,274.326 485.546,188.753c47.888,-33.449 43.43,-62.716 103.444,-141.989c299.512,-395.631 810.96,-985.85 335.081,373.33l-81.176,240.5l-2989.41,8.746l203.435,-552.887" style="fill:#423f3e;"/><path d="M184.452,770.129c-0,0 0.394,13.533 6.118,12.589c0,-0 3.91,14.79 17.443,14.396c-0,-0 2.061,14.728 9.984,18.199c-0,-0 -7.108,8.155 3.629,39.827c-0,0 -12.702,20.47 -13.924,37.577l-7.222,5.234l1.649,12.223l-4.375,13.585l8.203,14.082c0,0 33.823,-13.296 37.456,-11.323l-17.501,-14.754l12.876,-35.567c0,0 13.777,-3.374 7.558,-27.707l2.667,-26.165l12.287,-3.497c-0,0 8.667,21.356 28.931,23.894c0,0 9.966,29.227 22.104,42.661l4.367,26.475c-0,-0 38.292,22.717 55.68,-1.098c-0,-0 -2.475,-17.233 -31.137,-23.898c-0,-0 -3.799,-9.664 -7.436,-9.431l-6.288,-18.074l28.529,14.773l81.296,9.377l-42.814,-63.5l-84.81,-46.283c-0,-0 -5.253,-5.106 4.831,-10.812c0,0 28.409,-19.386 -5.543,-35.837c0,0 -4.153,-11.81 -16.31,-14.215l-1.397,-2.5c0,0 46.656,-1.815 38.672,-39.086c-0,-0 2.947,-21.117 -4.492,-26.288c0,0 1.972,-15.331 -3.27,-19.735c-0,0 -31.633,-42.953 -79.609,4.475c0,-0 -32.421,37.92 16.898,74.548l-5.192,0.46c-5.156,-1.596 -24.35,-22.139 -33.828,5.956l-14.325,5.561l-42.005,-22.802c0,-0 -44.511,1.65 -31.421,44.509l51.721,32.171Z" style="fill:#423f3e;"/><path d="M934.228,1208.85l0,-75.698l-8.028,-12.999l3.823,-13.763l-49.318,21.027l-3.441,-4.587l17.968,-18.734l-49.318,-2.676l0,-7.264l35.555,-10.705l15.675,-19.88l-63.081,-0.764l45.112,-28.291l16.44,-17.874l-34.791,-1.529l32.115,-35.555l-18.351,0l-1.147,-7.646l40.525,-13.954l23.321,-67.861l24.468,67.669l42.819,34.791l-2.294,6.881l-32.114,-6.117l17.968,27.145l27.527,17.586l-0,8.028l-34.026,-8.41l28.673,31.731l-28.673,1.147l37.084,29.056l-69.581,3.441l1.147,67.669l4.97,16.822l-3.44,22.174c-0,-0 -21.028,2.867 -17.587,-0.86Z" style="fill:#423f3e;"/><path d="M2363.63,924.237l-8.919,-60.889l-7.99,-9.51l1.454,-11.521l-37.193,22.725l-3.308,-3.285l12.246,-17.186l-39.986,3.659l-0.856,-5.843l27.338,-12.8l10.266,-17.838l-50.831,6.818l32.954,-28.073l11.118,-16.313l-28.165,2.869l21.642,-32.384l-14.761,2.163l-1.823,-6.016l30.953,-15.999l10.763,-57.333l27.655,51.548l38.541,22.939l-1.034,5.806l-26.553,-1.137l17.652,19.717l24.214,10.903l0.946,6.458l-28.36,-2.756l26.803,22.145l-22.929,4.301l33.253,19.002l-55.563,10.967l8.896,54.296l5.979,12.945l-0.154,18.242c-0,0 -16.576,4.784 -14.248,1.38Z" style="fill:#423f3e;"/><path d="M439.427,886.48c0,0 28.826,-15.078 65.615,-22.78c21.245,-4.447 45.166,-6.366 67.725,-1.257c19.034,4.31 36.971,13.824 51.487,31.459c5.25,6.379 10.133,13.754 14.393,22.379c16.632,32.588 38.391,45.575 62.118,47.765c30.894,2.851 65.331,-13.867 96.403,-28.605c13.826,-6.559 27.046,-12.498 38.691,-16.27c12.51,-4.053 23.065,-5.636 30.469,-0.836c9.975,6.453 23.666,19.408 38.598,31.981c13.976,11.768 28.992,23.2 42.224,29.997c13.309,6.837 25.218,8.704 33.565,3.275c3.813,-2.48 7.068,-6.452 9.321,-12.444c0.498,-1.325 0.772,-4.006 0.185,-7.064c-0.528,-2.749 -1.63,-5.853 -3.428,-8.317c-1.44,-1.974 -3.624,-3.088 -6.305,-3.3c-3.381,-0.267 -7.745,1.007 -10.511,1.946c-1.999,0.653 -3.092,2.807 -2.439,4.806c0.652,1.999 2.806,3.092 4.805,2.439c1.25,-0.399 2.908,-0.928 4.595,-1.23c0.8,-0.144 1.608,-0.219 2.36,-0.198c0.379,0.011 0.783,-0.153 0.968,0.122c0.665,0.983 1.111,2.139 1.435,3.27c0.534,1.862 0.827,3.671 0.513,4.423c-5.507,13.234 -17.017,10.904 -30.444,3.558c-12.513,-6.847 -26.412,-18.396 -39.871,-29.608c-15.394,-12.822 -30.194,-25.248 -40.626,-31.558c-9.43,-5.692 -22.547,-4.459 -38.032,0.981c-11.795,4.144 -25.045,10.718 -39.236,17.266c-29.538,13.63 -62.893,27.988 -91.995,24.19c-20,-2.61 -37.672,-14.661 -50.711,-42.752c-4.691,-9.769 -10.013,-18.212 -15.952,-25.378c-16.772,-20.236 -37.81,-30.833 -59.834,-35.217c-19.463,-3.874 -39.76,-2.836 -58.677,0.645c-44.424,8.175 -81.108,29.649 -81.108,29.649c-1.839,1.021 -2.503,3.342 -1.482,5.181c1.021,1.839 3.342,2.503 5.181,1.482Z" style="fill:#fff;"/><path d="M866.123,999.607c0,0 3.244,2.232 8.25,6.515c9.439,8.074 24.967,23.553 43.905,33.62c11.356,6.036 23.717,10.112 35.817,10.993c5.724,0.417 11.395,0.084 16.988,-1.146c3.671,-0.807 7.299,-1.985 10.895,-3.619c10.779,-4.897 21.086,-14.039 30.239,-29.406c0.844,-1.581 0.846,-3.478 0.006,-5.061c-0.84,-1.583 -2.412,-2.645 -4.194,-2.833c-0,-0 -4.151,-0.671 -8.747,-0.956c-2.09,-0.13 -4.258,-0.126 -6.2,-0.012c-3.358,0.357 -5.795,3.373 -5.437,6.731c0.357,3.358 3.373,5.794 6.731,5.437c1.283,-0.201 2.701,-0.334 4.105,-0.413c-5.773,9.704 -12.354,16.302 -19.621,20.269c-2.989,1.631 -6.067,2.845 -9.217,3.603c-4.895,1.176 -9.931,1.351 -14.946,0.801c-11.056,-1.213 -21.936,-6.204 -32.149,-12.096c-17.741,-10.235 -33.848,-23.547 -41.613,-32.514c-4.011,-4.632 -5.625,-7.996 -5.625,-7.996c-2.231,-2.536 -6.1,-2.783 -8.636,-0.552c-2.535,2.23 -2.782,6.1 -0.551,8.635Zm-0,-0c-0,-0 -0,-0 -0,-0l-0,-0Z" style="fill:#fff;"/><g><path d="M1977.73,521.376c0,-0 48.774,20.2 53.091,-28.728c0,0 0.358,-11.607 4.042,-12.828c3.685,-1.222 10.056,-4.561 10.056,-4.561l-10.091,-3.349c2.302,-7.047 -26.286,-34.404 -46.923,6.011c-0,-0 -18.407,17.482 -20.46,37.761l-20.122,13.534c-0,0 -4.214,3.15 4.099,2.848c-0,-0 3.391,6.879 11.889,0.089c8.498,-6.791 14.419,-10.777 14.419,-10.777Z" style="fill:#423f3e;"/><path d="M2006.78,521.587c-1.904,7.285 -2.091,13.14 -0.823,17.783l7.447,5.878l-7.447,-5.878l2.385,6.134l-2.385,-6.134l-3.258,3.602" style="fill:#423f3e;stroke:#000;stroke-width:0.82px;"/><path d="M1990.96,522.303c-1.737,5.717 -2.429,11.584 -0.823,17.783l7.447,5.879l-7.447,-5.879l3.286,6.086l-3.286,-6.086l-1.832,3.629" style="fill:#423f3e;stroke:#000;stroke-width:0.82px;"/><path d="M2017.54,464.994c-2.852,-0.412 -5.503,1.569 -5.915,4.422c-0.412,2.852 1.569,5.503 4.422,5.915c2.852,0.412 5.503,-1.569 5.915,-4.422c0.412,-2.852 -1.569,-5.503 -4.422,-5.915Z" style="fill:#fff;"/><path d="M2017.29,466.761c-1.877,-0.271 -3.621,1.033 -3.893,2.91c-0.271,1.877 1.033,3.622 2.91,3.893c1.877,0.271 3.621,-1.033 3.893,-2.91c0.271,-1.877 -1.033,-3.621 -2.91,-3.893Z"/><path d="M2015.16,466.455c-0.707,-0.102 -1.363,0.389 -1.465,1.095c-0.102,0.706 0.388,1.363 1.095,1.465c0.706,0.102 1.363,-0.389 1.465,-1.095c0.102,-0.707 -0.389,-1.363 -1.095,-1.465Z" style="fill:#fff;"/></g></svg>