<?xml version="1.0" encoding="UTF-8" standalone="no"?><!DOCTYPE svg PUBLIC "-//W3C//DTD SVG 1.1//EN" "http://www.w3.org/Graphics/SVG/1.1/DTD/svg11.dtd"><svg width="100%" height="100%" viewBox="0 0 480 760" version="1.1" xmlns="http://www.w3.org/2000/svg" xmlns:xlink="http://www.w3.org/1999/xlink" xml:space="preserve" xmlns:serif="http://www.serif.com/" style="fill-rule:evenodd;clip-rule:evenodd;stroke-linejoin:round;stroke-miterlimit:2;"><path d="M-182.572,632.602c0,0 336.13,-166.777 412.706,-31.957c68.431,120.479 227.615,80.892 262.054,70.747c1.807,-0.532 7.263,-2.243 10.586,-4.191c4.212,-2.47 6.279,-5.32 7.253,-6.63c49.537,-66.591 118.057,-98.381 218.189,-72.216c92.187,29.063 192.75,67.201 255.228,64.082c11.03,1.582 24.201,-15.779 38.752,-52.993c85.981,-219.889 385.857,-469.071 159.433,177.632l-38.624,114.43l-1422.37,4.162l96.795,-263.066" style="fill:#423f3e;"/><path d="M21.387,484.74c0,-0 0.188,6.438 2.912,5.989c-0,0 1.86,7.038 8.299,6.85c-0,-0 0.981,7.007 4.75,8.659c0,-0 -3.381,3.88 1.727,18.95c0,-0 -6.044,9.74 -6.625,17.879l-3.436,2.491l0.784,5.815l-2.081,6.464l3.903,6.7c-0,0 16.093,-6.326 17.821,-5.387l-8.327,-7.02l6.127,-16.923c0,0 6.555,-1.606 3.596,-13.183l1.269,-12.45l5.846,-1.663c-0,-0 4.124,10.161 13.766,11.368c-0,0 4.741,13.907 10.517,20.298l2.077,12.597c0,0 18.22,10.809 26.493,-0.522c0,-0 -1.177,-8.199 -14.815,-11.371c0,0 -1.807,-4.598 -3.538,-4.487l-2.992,-8.599l13.575,7.028l38.68,4.462l-20.371,-30.214l-40.353,-22.021c0,-0 -2.499,-2.43 2.299,-5.145c0,0 13.517,-9.223 -2.637,-17.051c-0,0 -1.976,-5.619 -7.76,-6.763l-0.665,-1.19c-0,0 22.199,-0.863 18.4,-18.597c-0,-0 1.402,-10.048 -2.137,-12.508c-0,0 0.938,-7.295 -1.556,-9.39c-0,0 -15.051,-20.437 -37.878,2.129c-0,0 -15.426,18.043 8.04,35.47l-2.471,0.219c-2.453,-0.759 -11.585,-10.534 -16.095,2.834l-6.816,2.646l-19.986,-10.849c-0,-0 -21.179,0.785 -14.95,21.177l24.608,15.308Z" style="fill:#423f3e;"/><path d="M378.134,693.483l-0,-36.017l-3.82,-6.185l1.819,-6.548l-23.466,10.004l-1.637,-2.183l8.549,-8.913l-23.465,-1.273l-0,-3.456l16.917,-5.094l7.458,-9.459l-30.015,-0.364l21.465,-13.461l7.822,-8.504l-16.553,-0.727l15.28,-16.917l-8.732,-0l-0.545,-3.639l19.282,-6.639l11.096,-32.288l11.642,32.197l20.373,16.553l-1.091,3.275l-15.28,-2.911l8.549,12.915l13.097,8.368l0,3.82l-16.189,-4.002l13.643,15.098l-13.643,0.546l17.645,13.825l-33.107,1.637l0.546,32.197l2.364,8.004l-1.637,10.55c0,0 -10.004,1.365 -8.367,-0.409Z" style="fill:#423f3e;"/><path d="M398.713,577.75c0.034,0.25 0.05,0.481 0.057,0.651c-2.149,4.423 -6.307,2.617 -11.079,-0.086c-5.768,-3.266 -12.084,-8.793 -18.354,-13.985c-7.452,-6.17 -14.774,-11.942 -19.862,-14.905c-4.544,-2.634 -10.557,-2.604 -17.639,-0.345c-6.355,2.027 -13.681,5.869 -21.69,9.52c-10.068,4.591 -21.206,8.882 -31.687,10.262c-12.665,1.667 -24.226,-2.195 -31.628,-19.13c-2.34,-4.951 -4.991,-9.246 -7.999,-12.862c-8.576,-10.309 -19.388,-15.664 -30.657,-17.741c-9.692,-1.786 -19.761,-1.153 -29.117,0.775c-21.515,4.431 -39.082,15.279 -39.082,15.279c-1.839,1.021 -2.503,3.342 -1.482,5.181c1.021,1.839 3.342,2.503 5.181,1.482c0,0 13.624,-6.627 30.879,-9.851c9.731,-1.818 20.622,-2.426 30.875,0.054c8.279,2.002 15.989,6.275 22.31,13.984c2.319,2.827 4.531,6.054 6.44,9.861c8.937,16.658 20.266,23.164 32.546,24.041c15.178,1.083 31.827,-7.451 47.024,-14.768c6.485,-3.122 12.766,-5.78 18.267,-7.48c5.162,-1.596 9.507,-2.386 12.515,-0.359c4.63,3.106 10.843,9.406 17.833,15.327c6.786,5.748 14.22,11.158 20.707,14.375c7.341,3.64 13.903,4.306 18.418,1.248c2.136,-1.447 4.038,-3.658 5.248,-7.082c0.304,-0.859 0.583,-2.582 0.166,-4.543c-0.338,-1.586 -0.978,-3.383 -2.048,-4.79c-1.066,-1.401 -2.586,-2.292 -4.519,-2.413c-1.872,-0.117 -4.29,0.533 -5.813,1.072c-1.999,0.653 -3.092,2.806 -2.44,4.805c0.653,1.999 2.807,3.092 4.806,2.439c0.413,-0.123 1.202,0.009 1.824,-0.016Z" style="fill:#fff;"/><path d="M343.321,596.044c0,0 1.807,0.67 4.614,2.712c4.898,3.563 12.163,11.555 21.49,16.286c5.724,2.904 11.957,4.624 18.003,4.942c2.91,0.153 5.773,-0.042 8.619,-0.636c1.887,-0.394 3.746,-0.962 5.623,-1.726c5.613,-2.283 10.978,-6.687 16.064,-14.299c0.843,-1.581 0.845,-3.478 0.005,-5.061c-0.84,-1.583 -2.412,-2.645 -4.194,-2.833c-0,-0 -2.085,-0.436 -4.428,-0.716c-1.119,-0.134 -2.273,-0.132 -3.32,-0.125c-3.358,0.357 -5.794,3.373 -5.437,6.731c0.238,2.239 1.659,4.069 3.575,4.932c-1.61,2.226 -3.387,3.931 -5.382,5.127c-1.271,0.761 -2.58,1.366 -3.947,1.71c-2.147,0.54 -4.375,0.577 -6.575,0.291c-5.004,-0.651 -9.755,-3.284 -14.336,-6.044c-8.13,-4.9 -15.938,-10.754 -19.199,-15.181c-1.785,-2.423 -1.988,-4.193 -1.988,-4.193c-2.231,-2.535 -6.1,-2.782 -8.635,-0.552c-2.535,2.231 -2.783,6.1 -0.552,8.635Zm-0,0c-0,0 -0,0 -0,0l-0,0Z" style="fill:#fff;"/></svg>