<?xml version="1.0" encoding="UTF-8"?>
<svg id="Calque_1" xmlns="http://www.w3.org/2000/svg" version="1.1" xmlns:serif="http://www.serif.com/" xmlns:xlink="http://www.w3.org/1999/xlink" viewBox="0 0 2267.7 5839.4">
  <!-- Generator: Adobe Illustrator 29.4.0, SVG Export Plug-In . SVG Version: 2.1.0 Build 152)  -->
  <defs>
    <style>
      .st0 {
        isolation: isolate;
      }

      .st0, .st1 {
        display: none;
      }

      .st2 {
        fill: #fff;
      }

      .st3 {
        fill: #423f3e;
        fill-rule: evenodd;
      }
    </style>
  </defs>
  <path class="st3" d="M636.3,3327.7v-71.1l-7.5-12.2,3.6-12.9-46.3,19.8-3.2-4.3,16.9-17.6-46.3-2.5v-6.8l33.4-10.1,14.7-18.7-59.3-.7,42.4-26.6,15.4-16.8-32.7-1.4,30.2-33.4h-17.2l-1.1-7.2,38.1-13.1,21.9-63.8,23,63.6,40.2,32.7-2.2,6.5-30.2-5.7,16.9,25.5,25.9,16.5v7.5l-32-7.9,26.9,29.8-26.9,1.1,34.8,27.3-65.4,3.2,1.1,63.6,4.7,15.8-3.2,20.8s-19.8,2.7-16.5-.8h-.1Z"/>
  <path class="st3" d="M2141.1,3248.6l.8-57.8-6-10,3.1-10.5-37.9,15.6-2.6-3.5,13.9-14.1-37.6-2.5v-5.5l27.3-7.8,12.2-15-48.2-1.2,34.7-21.2,12.7-13.5-26.6-1.5,24.9-26.8-14-.2-.8-5.9,31.1-10.3,18.5-51.6,18,51.9,32.4,27-1.8,5.2-24.5-5,13.5,20.9,20.8,13.7v6.1l-26-6.8,21.6,24.5-21.9.6,28,22.6-53.2,1.9.2,51.7,3.6,12.9-2.8,16.9s-16.1,2-13.4-.8h0Z"/>
  <path class="st3" d="M-31,2835.3s377.6,194.3,465.5,414.8c87.9,220.5,387.6-75,723.3-71.3,161.8,1.8,581.4,134.5,699.3,71.3s235.8-73.2,431.6,32.7,93.9,429.6,93.9,429.6l-2520,59.9,106.4-937.1h0Z"/>
  <image class="st0" width="737" height="736" transform="translate(-891.1 2528.7)" xlink:href="fond_contact-1.png"/>
  <g class="st1">
    <path class="st2" d="M-561.1,1184.9c0-10.8-8.7-19.5-19.5-19.5s-19.5,8.7-19.5,19.5,8.7,19.5,19.5,19.5,19.5-8.7,19.5-19.5ZM-177,1336.9v-20.5c0-5.4,5.2-17.2,5.9-24.1,1.5-14.4.4-42.5-14-50.8s-4.5-.4-5.8-1.1c-2.9-1.4-3.9-5.7-8.6-6.4s-6.1,1-8.9.9c-5.3-.2-9.1-5.2-16.3-2.2-1.5.6-2.5,2.6-4,3-3.9,1.1-9-.7-13.3,1.7l-30-20.5c-3.5,12.5,3.2,26.8,14,33v1.5c-11.8,10.4-37.7,35.4-16.4,48.5.8,1.8-5.9,8.2-7.5,9.5-8.2,6.8-17.2,4.4-27.5,7.5s-18.6,11.1-24,12-10.2-.2-15,0c-12.4.7-25,2.1-37.4.5l-38.1-32.9c-3.2-5.5-7-12.8-12.4-16.6s-7.4,0-10.5-5.5c8.4-2.8,4.6-9.7,1.3-15.6-5.2,0-13.1,3.2-17.9,3s-7.5-5.3-11.9-4.9-9.4,4.7-12.1,5-3.6-1.3-5.4-1v6c-3.6.7-1.9-5-5.5-5s-1.9.5-2.4,1.7l-.2,4.3c-3.9-.3-7.9,1.5-11.7,1.6-44.4,1.8-89.6-2-133.5,10.7-4,1.1-11.6,3.5-11.9,8.2-.4,7.7,4.6,8,10.9,9.2,28.5,5.6,70.5,1,99-5.4s23.6-8,34.9-10.1c5.2-1,11.6,0,16.8-2.1,2.4,5.7,9.7,5.3,15,5.8s7.6.6,11.1.8,4.4-2.1,7.6-1.6,7.9,4.1,8.3,4.8-1,2.8,0,5c1.7,3.9,9.8,13.1,14.5,13.5l14,22.6h-99c.4-6.5-1.8-10.2-8.5-11-21.4-2.6-43.6,1.4-65,2.1-9.7.3-52.3-1.7-57.5,1.5s-2.6,7.3-3.6,7.5c-10.6.2-21.3-.4-31.9,0-23.2.7-46.7,2.6-69.9,4.1-7.5.5-22.1-2.6-17.9,10.8,2.9,9.2,12.3,5.7,18.7,6.3,35.6,3.3,42.7,74.1,49.3,100.7,7.3,29.4,24.1,69.6,49.6,87.4,19,13.2,42.9,17.6,65.7,17.8-5,14.1-3.6,35-19.3,42.2s-26.9,5-25.5,23.1c7,7.3,11.6-1.1,18.3-3.4,7-2.4,13.9-2.3,21.2-5.8,20.5-9.7,15.5-22.1,18.4-40.6,1.1-7,4-15.5,12.3-15.7,64.6-.3,129.4,1.3,193.8-1.7,14.1,11.1,3.1,35.3,15.2,47.8,11.3,11.7,25.4,8.8,36.9,15.1,1.6.9,2.8,3.1,4.4,3.6,10.9,3.3,11.1-6.3,6.5-13.5-7.8-12.3-21.9-7.1-30.1-16.9s-6.4-12.7-7.9-18.1-1-13.9-5.3-19.2c24-.9,57.1-4.9,74.5-23,37.4-38.9,27.2-100.7,37.8-149.2,2.5-11.5,9.3-34.4,21.9-38.1,5-1.5,13.1,0,14.7-7.4s-2.6-7-2.5-8.8,2.7-3.6,3.2-5.5c1.2-4.1-.1-10.1-2.3-13.7s-3.7-2.5-4.2-4.8c4.5-5.3,9-3.9,15-5.5,5.1,15.3,3,32.3,22,38h0Z"/>
    <path d="M-561.1,1184.9c0,10.8-8.7,19.5-19.5,19.5s-19.5-8.7-19.5-19.5,8.7-19.5,19.5-19.5,19.5,8.7,19.5,19.5ZM-588,1200.9c7.3,1.9,14.1,1.7,20-3.5-3.2-2.8-6.3-7.5-7.3-11.7s.2-10.6-.7-15.3-13.7-2-17,.5c5.3,8.8,7.5,18.7,2,28,3.1,3.2,5.1-12,5.1-13.5,0-6.1-2.8-9.2-5.1-14.5,8.9,6.5,6.9,20.9,3,30ZM-566,1196.9c-1.7-4.4-4.7-7.7-5.9-12.6s-.9-9.5-1.6-14.4c-4.1,8.6-.2,21.5,7.5,27ZM-564,1192.9c2.3-7.3.7-17.8-7-21,0,4.1-.2,7.7.7,11.8s4.1,11.2,6.3,9.2ZM-591,1196.9c1.8-8.3,2-17-3.5-24-6.2,6.6-5.5,20.6,3.5,24Z"/>
    <path class="st2" d="M-588,1200.9c3.9-9.1,5.9-23.5-3-30,2.3,5.2,4.9,8.4,5.1,14.5s-2,16.7-5.1,13.5c5.5-9.3,3.3-19.2-2-28,3.3-2.5,16-5.8,17-.5s-.6,9.8.7,15.3,4.1,8.9,7.3,11.7c-5.9,5.2-12.7,5.4-20,3.5Z"/>
    <path class="st2" d="M-591,1196.9c-9-3.4-9.7-17.4-3.5-24,5.5,7,5.3,15.7,3.5,24Z"/>
    <path class="st2" d="M-564,1192.9c-2.2,2-6-7.7-6.3-9.2-.9-4.1-.8-7.7-.7-11.8,7.7,3.2,9.3,13.6,7,21Z"/>
    <path class="st2" d="M-566,1196.9c-7.6-5.5-11.5-18.4-7.5-27,.7,4.9.3,9.5,1.6,14.4s4.2,8.1,5.9,12.6Z"/>
    <g>
      <path class="st2" d="M-228,1343.9c-10.5,9.8-15.3,23.2-18.5,37-8.4,36.1-4.1,74.8-15.2,110.8-22.6,73-89.6,58.5-150.7,64.3-61.6-3.3-125.9,4.5-187,.9-50.1-2.9-76.9-21.7-97.4-66.6-11.6-25.5-14.4-48.5-20.8-75.2-5.7-23.7-10.6-50.4-33.3-63.7l91-4.5c2.8,33-.3,66.5,1,99.5.6,15,3,30,4,45s-.6,15.1,1,22.5c.8.8,18.2-2.1,21.5-2.1,6.7,0,14.4,2.6,21,3.1,18.9,1.3,41.7-1.9,60.9-2s11.6,1.8,17.5,1.1l.5-9.1h3.9l1.5-1.6c-.3-10.9-.3-22-.8-32.9-1.1-21.6-2.8-43.4-3.1-64.9-.3-19.5,0-39.1,1-58.5,50.3-1.7,101.1-1,151.6-1s33.4,0,49.9,0c33.6-.3,67.1.3,100.5-1.9v-.2Z"/>
      <path class="st2" d="M-530,1345.9c0-2.2-.8-12.5,1.7-13l313.7-3.7c12.2,10.6-3.9,13.1-12.8,13.8-23,1.7-49.8,1.6-73,2-66,1.1-132.3-1.8-198.1,0-10.5.3-21.1-.8-31.5,1h0Z"/>
      <path class="st2" d="M-659,1331.9l-1,14c-9.1.6-18.3.6-27.5,1-24.8,1.1-58,5.2-82.1,3s-10.5-12-5-13l115.5-5h0Z"/>
      <g>
        <path class="st2" d="M-577,1557.9c-14.8,13.4-1.8,38-18.1,50.4-10.1,7.7-18.6,6.3-28.9,10.1-2.8,1-15.3,11.9-15.5,3-.4-16.1,16.8-15.3,26.4-20.2,7.5-3.8,11.4-12.7,13.6-20.4s2.5-23,7-23h15.5Z"/>
        <path class="st2" d="M-313.1,1620.8c-6.6,3.7-9.2-3.2-14.9-5.3-10.4-3.8-18.8-2.3-28.9-10.1-12.7-9.8-7.6-25.4-11.1-38.9-1.2-4.6-4.2-7.4-5.9-11.6,7.3,1.2,15.9-3.7,18.6,5.9s1.7,20.8,9,31,35.7,6.4,33.3,28.9h-.1Z"/>
      </g>
      <g>
        <path class="st2" d="M-557,1431.9l.9,62.9c-7.6,2.2-15.6.6-23.4,1.1-17.8,1-35.7,4.1-53.4,0l-3.1-64h79Z"/>
        <path class="st2" d="M-527,1330.9l-4-1c-1.1,11.9-.8,23.6-1,35.5-.4,32.6.4,65.2,2,97.9s.4,21.1,1,31.5h-4l-1-22.5c2.9-43.3-3.7-91.3,0-134.1.4-4.5,2-8.2,3-12.5-3.4,2.6-4.7,10.3-5,14.5-3.6,41.9,2.8,88.7,0,131.1l1.1,32.5c-7.5.2-15.1-.3-22.5,0-24,.8-42.8,1.5-67,0-9.6-.6-19.2,0-28.5,2-.8-7.8-.4-15.7-1-23.5-3.1-41.4-2.5-79.7-2.9-121.1,0-7.7-1.7-15.7-1.1-24s.5-12.8,8-13.5c-1.2,4.5-2.7,8.8-3,13.5-1.6,20.3.7,41.8,1.1,62,.7,31.8,1,63.3,3.9,95.1,0,1,.6,4.4,1.6,4.6,9.6-3.2,19.5.4,28.9.9,13.2.7,24.3-1.3,37-2l38.5-2c0-8.1.3-16.4,0-24.5-.6-25-.8-49.9-1-75,0-17.7-2.5-36.1-1-53.9s3.3-18.9,6.9-21,12.2,4,10,9.5Z"/>
        <path class="st2" d="M-559,1357.9l2,72-40.1.6c-1.8-1.3-.7-14.8-.9-18.1s-1-4.6-1.1-6.9c-.5-15.2.8-30.4,1-45.5l39-2h0Z"/>
        <path class="st2" d="M-600,1359.9v70c-12.1-.8-24-1.5-36,0l-2-71,38,1Z"/>
        <path class="st2" d="M-638,1323.9c-2.8,6.4-3.2,13.6-3,20.5.7,43.3,4.6,86.7,6.1,129.9.2,7.2-.3,14.4,0,21.5l-11,1c0-14.5-2.3-29-3-43.5s.2-10,0-15c-1.3-31.3-4.4-70.1-2-101,.8-9.6,1.7-15.4,13-13.5h0Z"/>
        <path class="st2" d="M-539,1320.9c-5.1,6.4-5.6,14.7-7,22.5l2,151.5h-10c.8-5-.8-9.8-1-14.5-1.4-28.7-1.5-60.1-2-89-.4-22.6-3-50.1,7.2-70.3l10.8-.2Z"/>
        <path class="st2" d="M-552,1320.9c-6.5,10.3-7.1,23-7,35l-39,2c-.2-5.8,0-31.1,4.7-34.1l41.3-2.9Z"/>
        <path class="st2" d="M-596,1323.9c-.9,2.5-2.2,5.1-2.8,7.7s-1.2,7.1-1.2,7.8v18.5l-38-1c-.4-11.3-2.7-22.2,2-33h40Z"/>
        <path class="st2" d="M-534,1511.9c-8.2,0-16.4,0-24.5,0-14.8,0-31.8,2.2-46,2.1-6.6,0-14.3-2.6-21-3.1s-18.4,0-27,2l-.6-4.4c.3-1.1,12.4-2.5,14.5-2.7,14.1-.8,28.3,2.3,43.1,2.1,17.3-.2,41.5-4.1,58-2.1s3.5,2.1,3.5,6h0Z"/>
      </g>
      <g>
        <path d="M-177,1336.9c-19-5.7-16.9-22.7-22-38-6,1.6-10.4.2-15,5.5.5,2.3,2.6,2.1,4.2,4.8s3.5,9.6,2.3,13.7-3.1,4.6-3.2,5.5c-.1,1.8,3.4,4.2,2.5,8.8-1.5,7.4-9.7,5.9-14.7,7.4-12.6,3.8-19.4,26.6-21.9,38.1-10.6,48.5-.3,110.3-37.8,149.2-37.5,38.9-50.5,22.1-74.5,23,4.3,5.3,3.6,12.7,5.3,19.2s4.3,13.8,7.9,18.1c8.2,9.8,22.3,4.6,30.1,16.9,4.6,7.2,4.3,16.8-6.5,13.5s-2.7-2.7-4.4-3.6c-11.5-6.3-25.6-3.4-36.9-15.1-12.1-12.5-1.1-36.7-15.2-47.8-64.5,3.1-129.2,1.4-193.8,1.7-8.4.2-11.2,8.6-12.3,15.7-2.9,18.5,2.1,30.9-18.4,40.6-7.3,3.5-14.2,3.4-21.2,5.8-6.6,2.3-11.3,10.7-18.3,3.4-1.4-18.1,14.1-17.9,25.5-23.1s14.3-28.1,19.3-42.2c-22.8-.2-46.7-4.5-65.7-17.8-25.5-17.8-42.3-58-49.6-87.4-6.6-26.6-13.7-97.5-49.3-100.7s-15.8,2.9-18.7-6.3c-4.2-13.4,10.4-10.3,17.9-10.8,23.2-1.5,46.7-3.3,69.9-4.1,10.6-.3,21.3.3,31.9,0,1-.3,1.4-6.2,3.6-7.5,5.2-3.2,47.8-1.2,57.5-1.5,21.3-.7,43.6-4.6,65-2.1,6.7.8,8.9,4.5,8.5,11h99l-14-22.6c-4.7-.4-12.8-9.5-14.5-13.5s.5-4.1,0-5-7.1-4.6-8.3-4.8c-3.2-.5-5.2,1.7-7.6,1.6s-7.6-.5-11.1-.8c-5.3-.5-12.7,0-15-5.8-5.2,2-11.6,1.2-16.8,2.1-11.3,2.1-23.2,7.4-34.9,10.1-28.5,6.4-70.5,11-99,5.4s-11.3-1.5-10.9-9.2,7.9-7.1,11.9-8.2c43.9-12.6,89.1-8.9,133.5-10.7,3.8-.2,7.7-1.9,11.7-1.6l.2-4.3c.4-1.2,1-1.7,2.4-1.7,3.6,0,1.9,5.7,5.5,5v-6c1.9-.3,3.6,1.2,5.5,1,2.7-.3,10.3-4.8,12.1-5,4.4-.4,9.4,4.8,11.9,4.9,4.8.2,12.7-2.9,17.9-3,3.2,5.8,7.1,12.8-1.3,15.6,3.1,5.4,6.6,2.8,10.5,5.5s9.2,11.1,12.4,16.6l38.1,32.9c12.5,1.6,25.1.2,37.4-.5s10.5.7,15,0,16.5-9.7,24-12,19.3-.6,27.5-7.5c1.6-1.3,8.4-7.7,7.5-9.5-21.3-13.1,4.7-38.1,16.5-48.5v-1.5c-10.8-6.2-17.5-20.6-14-33l30,20.5c4.3-2.4,9.4-.6,13.3-1.7s2.5-2.4,4-3c7.2-3,11,2,16.3,2.2s5.3-1.4,8.9-.9,5.7,5,8.6,6.4,3.4-.3,5.8,1.1c14.3,8.3,15.4,36.4,14,50.8s-5.9,18.7-5.9,24.1v20.5h-.1ZM-242.3,1239.2c-1.2-1.4-22.7-16.6-25.4-18.1s-1.8-1.5-3.3-1.2c-2.4,23.7,22.5,34.9,39,46,1.1-1.4-8.2-24.2-10.3-26.7h0ZM-179,1333.9v-19.5c0-4.8,5.2-16.5,5.9-23.1s.6-21.4-1.3-29.4-6.9-17.7-14.5-20c3.1,6.7,4.6,13.1,5,20.5s.7,4.7-1,4.5c-.4-9-.4-16.1-6-23.5s-9-9.7-17-6.5l3,5c-6.8-6.1-14.7-11.8-23-4.5,9.7,18.9,15.1,41.2,15,62.5,4,.2,5.3-3.8,6.8-6.7l3.2-18.3c.2,7.8-.2,16.1-4,23,9.4,1.7,9.1-3.5,14-9-3.2,7.8-6.3,9.3-2,18l3-4c-3.7,12.9,0,25.7,13,31h0ZM-224,1303.9l8.3-1.2,1.5-1.5c.2-14.9-3.1-30-7.6-44.1-1.2-3.9-5.3-17.9-9-19s-9.6-1-8.9,1.8,4.3,8.9,5.6,12.4c6,16.7,9.4,33.7,10,51.5h0ZM-446.1,1261l-23.9,3.9,3.1,9.9,22.9-2.9c.5-3.9-.9-7.3-2.1-10.9ZM-473,1265.9c-1.4.5-6.4-1.4-6,1.5s5.4,10.2,7,8.5l-1-10ZM-497,1278.9l-4-9.6-9,1.6.4,7.9,1.1,2.1,11.5-2ZM-226.1,1305.8c1.7-2.7-2.3-29-3.7-33.5s-.3-3-2.1-3.4c-1.8,7.6.5,15,0,22.5-.6,8-9.1,21.1,5.9,14.4h0ZM-539,1271.9c-2.5-.2-3.7-1.7-6.5-2-20.1-2.4-66.6,5.2-87.7,9.3-6.6,1.3-16,2-20.8,6.7l24.4-3,1.6-2,.5,2,.6-1.8,7.8.6v-1.8c0,0,2.1,2,2.1,2-.7-4.5,6.4,1.3,6-3l3,2,.2-1.9,2.7.7v-1.8c0,0,3.1,2,3.1,2l.5-2,2,2,.5-3,1,2,1-2c4.4,3.8,2.3.6,3.5.2s3.4.8,4.1.6c8-1.6,20.3-2.3,28-3.6s4.2,1.1,5.9-.2l.7,2c3.8,1-.6-2.2,2.5-2l1,2,.5-2,3,2,.4-1.9,5.6.9-4,3,5.4-1.1,1.1,2.1,2.5-5,1,4c2.3-.8,4.6-2,6.9-2.6s3.3-1.3,3,.5c-41.7,13.2-86.6,16.9-130,11v6.4c24.6,7.7,52.9,5.7,78.4,2.5,12.7-1.6,25.4-3.9,37.8-7.2s27.5-7.4,28.3-8.7.9-6.6-.5-7.6l-10,1.6,7-3-24.5-1,.5,2h0ZM-452.8,1291.1c-1.1,1.9,8.1,14.9,10.3,14.9,3.6-1.6,14-8.8,14.3-12.7s-9-10.3-11.3-13.3l-13.4,11.1h.1ZM-212.3,1308.2c-6-6.7-15.6,1.4-21.4,2.5s-15.4-.9-19.7,5.3c-4.3,6.2-7.1,13.4-.6,12.9-2.5-4.5.9-10.2,3.5-14l-3.3,10.3,3.6,3.5c10-2.9,29.5,1.8,38.3-2.4s2.9-14.6-.3-18.2h-.1ZM-552,1320.9l-41.3,2.9c-4.7,3-4.9,28.3-4.7,34.1l39-2c0-11.9.5-24.7,7-35ZM-539,1320.9l-10.8.2c-10.2,20.2-7.7,47.8-7.2,70.3.5,28.9.6,60.3,2,89s1.9,9.5,1,14.5h10l-2-151.5c1.4-7.7,1.9-16.1,7-22.5ZM-527,1330.9c2.1-5.5-6.4-11.6-10-9.5s-6.6,16.7-6.9,21c-1.5,17.8.9,36.3,1,53.9.2,25.1.4,50,1,75,.2,8.2-.2,16.4,0,24.5l-38.5,2c-12.7.7-23.8,2.7-37,2-9.4-.5-19.3-4.1-28.9-.9-1.1-.2-1.5-3.6-1.6-4.6-2.9-31.7-3.3-63.2-3.9-95.1-.4-20.2-2.7-41.7-1.1-62s1.8-9,3-13.5c-7.5.6-7.6,7.1-8,13.5s1,16.3,1.1,24c.4,41.4,0,79.7,2.9,121.1.6,7.7.2,15.7,1,23.5,9.3-2,18.9-2.6,28.5-2,24.2,1.4,42.9.8,67,0,7.5-.3,15.1.3,22.5,0l-1.1-32.5c2.8-42.4-3.5-89.2,0-131.1s1.6-11.9,5-14.5c-1,4.3-2.6,8-3,12.5-3.7,42.8,2.9,90.7,0,134.1l1,22.5h4c-.5-10.5-.4-21.1-1-31.5-1.6-32.7-2.4-65.3-2-97.9.2-11.9,0-23.7,1-35.5l4,1ZM-638,1323.9c-11.3-2-12.3,3.8-13,13.5-2.4,30.9.7,69.7,2,101,.2,5-.3,10.1,0,15,.7,14.4,3,28.9,3,43.5l11-1c-.2-7.2.3-14.4,0-21.5-1.5-43.2-5.4-86.6-6.1-129.9,0-6.9.2-14.1,3-20.5h0ZM-596,1323.9h-40c-4.7,10.8-2.4,21.7-2,33l38,1v-18.5c0-.6,1-6.6,1.2-7.8.5-2.6,1.9-5.2,2.8-7.7ZM-530,1345.9c10.4-1.8,21-.7,31.5-1,65.7-1.8,132,1.1,198.1,0,23.2-.4,50-.3,73-2,8.9-.7,25.1-3.2,12.8-13.8l-313.7,3.7c-2.4.6-1.5,10.9-1.7,13h0ZM-659,1331.9l-115.5,5c-5.6,1-5.3,12.1,5,13,24.1,2.2,57.2-1.9,82.1-3,9.2-.4,18.4-.4,27.5-1l1-14h0ZM-228,1343.9c-33.5,2.3-66.9,1.7-100.5,1.9-16.5,0-33.4,0-49.9,0-50.5,0-101.2-.6-151.6,1-1.1,19.5-1.3,39-1,58.5.3,21.6,2,43.3,3.1,64.9s.5,22,.8,32.9l-1.5,1.5h-3.9l-.5,9.1c-5.9.7-11.7-1.1-17.5-1.1-19.3,0-42,3.4-60.9,2-6.6-.5-14.3-3-21-3.1-3.3,0-20.7,2.9-21.5,2.1-1.6-7.4-.5-15-1-22.5-1-14.9-3.4-30-4-45-1.3-33.1,1.8-66.6-1-99.5l-91,4.5c22.7,13.3,27.6,40,33.3,63.7,6.4,26.6,9.2,49.7,20.8,75.2,20.5,44.9,47.3,63.8,97.4,66.6,61.2,3.5,125.5-4.2,187-.9,61.1-5.7,128.1,8.7,150.7-64.3s6.8-74.7,15.2-110.8,8-27.1,18.5-37v.3ZM-559,1357.9l-39,2c-.2,15.2-1.6,30.3-1,45.5s1,4.6,1.1,6.9-.9,16.8.9,18.1l40.1-.6-2-72h0ZM-600,1359.9l-38-1,2,71c12-1.5,24-.8,36,0v-70ZM-557,1431.9h-79l3.1,64c17.7,4.1,35.6,1.1,53.4,0s15.8,1.1,23.4-1.1l-.9-62.9ZM-534,1511.9c0-3.9.8-5.5-3.5-6-16.5-2-40.7,1.9-58,2.1-14.8.2-29-2.9-43.1-2.1s-14.2,1.6-14.5,2.7l.6,4.4c8.6-2.1,18.1-2.6,27-2s14.4,3,21,3.1c14.2,0,31.1-2,46-2.1s16.4,0,24.5,0h0ZM-313.1,1620.8c2.4-22.5-23.4-15.1-33.3-28.9s-6.1-20.3-9-31-11.3-4.7-18.6-5.9c1.7,4.1,4.7,6.9,5.9,11.6,3.6,13.5-1.5,29,11.1,38.9,10.1,7.9,18.5,6.3,28.9,10.1,5.7,2.1,8.3,9,14.9,5.3h.1ZM-577,1557.9h-15.5c-4.5,0-5.8,18.8-7,23-2.2,7.7-6.1,16.6-13.6,20.4-9.6,4.9-26.8,4-26.4,20.2s12.7-2,15.5-3c10.3-3.8,18.8-2.4,28.9-10.1,16.3-12.5,3.3-37.1,18.1-50.4h0Z"/>
        <g>
          <path class="st2" d="M-452.8,1291.1l13.4-11.1c2.3,3,11.6,9.8,11.3,13.3s-10.7,11.1-14.3,12.7c-2.2,0-11.4-13-10.3-14.9h-.1Z"/>
          <g>
            <path class="st2" d="M-539,1271.9l-.5-2,24.5,1-7,3,10-1.6c1.4,1,1.4,6.3.5,7.6-.9,1.3-24.9,7.8-28.3,8.7-12.4,3.2-25.1,5.6-37.8,7.2-25.5,3.2-53.8,5.2-78.4-2.5v-6.4c43.4,5.9,88.3,2.2,130-11,.2-1.9-2-.8-3-.5-2.4.5-4.7,1.7-6.9,2.6l-1-4-2.5,5-1.1-2.1-5.4,1.1,4-3-5.6-.9-.4,1.9-3-2-.5,2-1-2c-3.1-.2,1.4,3-2.5,2l-.7-2c-1.7,1.3-4.9,0-5.9.2-7.7,1.4-20,2.1-28,3.6s-3.4-.9-4.1-.6c-1.1.4,1,3.6-3.5-.2l-1,2-1-2-.5,3-2-2-.5,2-3-2v1.8c0,0-2.9-.7-2.9-.7l-.2,1.9-3-2c.4,4.3-6.7-1.5-6,3l-2-2v1.8c0,0-7.9-.6-7.9-.6l-.6,1.8-.5-2-1.6,2-24.4,3c4.8-4.7,14.2-5.4,20.8-6.7,21.1-4.2,67.6-11.7,87.7-9.3,2.8.3,4,1.8,6.5,2h.2Z"/>
            <path class="st2" d="M-446.1,1261c1.2,3.6,2.6,7,2.1,10.9l-22.9,2.9-3.1-9.9,23.9-3.9Z"/>
            <polygon class="st2" points="-497 1278.9 -508.5 1280.9 -509.6 1278.8 -510 1271 -500.9 1269.3 -497 1278.9"/>
          </g>
          <path class="st2" d="M-473,1265.9l1,10c-1.6,1.7-6.7-6.6-7-8.5-.4-2.9,4.6-1,6-1.5Z"/>
        </g>
        <g>
          <path class="st2" d="M-179,1333.9c-13-5.3-16.7-18.1-13-31l-3,4c-4.3-8.7-1.2-10.2,2-18-4.9,5.5-4.5,10.7-14,9,3.8-6.9,4.2-15.2,4-23l-3.2,18.3c-1.5,2.9-2.8,6.9-6.8,6.7,0-21.3-5.3-43.6-15-62.5,8.3-7.3,16.2-1.6,23,4.5l-3-5c7.9-3.2,12.3.5,17,6.5s5.6,14.5,6,23.5c1.7.2,1.1-3.4,1-4.5-.5-7.4-2-13.8-5-20.5,7.6,2.3,12.8,12.7,14.5,20s2.2,21.2,1.3,29.4-5.9,18.3-5.9,23.1v19.5h0Z"/>
          <path class="st2" d="M-224,1303.9c-.6-17.8-3.9-34.8-10-51.5-1.3-3.6-4.9-9.7-5.6-12.4s7.1-2.4,8.9-1.8c3.7,1.1,7.7,15.1,9,19,4.5,14.2,7.8,29.2,7.6,44.1l-1.5,1.5-8.3,1.2h0Z"/>
          <path class="st2" d="M-242.3,1239.2c2.1,2.5,11.4,25.3,10.3,26.7-16.5-11.1-41.4-22.3-39-46,1.5-.3,2.2.6,3.3,1.2,2.7,1.5,24.2,16.7,25.4,18.1h0Z"/>
          <path class="st2" d="M-212.3,1308.2c3.2,3.5,5.4,15.7.3,18.2-8.7,4.2-28.3-.6-38.3,2.4l-3.6-3.5,3.3-10.3c-2.6,3.8-6,9.5-3.5,14-6.5.5-1.2-10.4.6-12.9,4.3-6.2,13.9-4.2,19.7-5.3s15.4-9.2,21.4-2.5h.1ZM-214.2,1310.2c-1.6-1.7-8.4-3.7-9.7-.3,4.3-.2,7.7-.6,9.8,3.7s.5,5.5,2.2,6.3c.2-2.4-.7-8-2.2-9.7h-.1ZM-224,1312.9h-14.5c-5.1,0-12.1,6.7-12.5,12,6.4-10.3,10.9-9,21.4-10.1s5.5-.4,5.6-1.9ZM-217.1,1315h-2.9c-.4,1.6,1.8.4,2.1,1.5.6,3-2,5.2-4.1,6.8l-14.9,3.6c8,.7,23.7-.3,19.9-11.9h-.1ZM-229,1318.9c-1.4-4.3-13.6-.4-13,2.5s7.1,1.4,9,1.5c.7-5.2-6.9,1.8-6-3l10-1Z"/>
          <path class="st2" d="M-226.1,1305.8c-14.9,6.7-6.4-6.4-5.9-14.4.5-7.5-1.7-14.9,0-22.5,1.8.3,1.7,2,2.1,3.4,1.4,4.5,5.4,30.8,3.7,33.5h0Z"/>
          <path d="M-224,1312.9c-.1,1.4-4.5,1.8-5.6,1.9-10.5,1.1-15,0-21.4,10.1.4-5.3,7.3-12,12.5-12h14.5Z"/>
          <path d="M-217.1,1315c3.8,11.6-11.9,12.6-19.9,11.9l14.9-3.6c2.1-1.6,4.8-3.8,4.1-6.8s-2.5,0-2.1-1.6h3Z"/>
          <path d="M-229,1318.9l-10,1c-.9,4.8,6.7-2.2,6,3-1.9,0-8.5.8-9-1.5s11.6-6.8,13-2.5Z"/>
          <path d="M-214.2,1310.2c1.6,1.7,2.4,7.3,2.2,9.7-1.7-.8-1.2-4.2-2.2-6.3-2.1-4.4-5.5-4-9.8-3.7,1.3-3.4,8.1-1.5,9.7.3h.1Z"/>
        </g>
      </g>
    </g>
  </g>
  <image class="st0" width="737" height="733" transform="translate(-894.1 1715.3)" xlink:href="fond_contact-2.png"/>
</svg>