<?xml version="1.0" encoding="UTF-8" standalone="no"?><!DOCTYPE svg PUBLIC "-//W3C//DTD SVG 1.1//EN" "http://www.w3.org/Graphics/SVG/1.1/DTD/svg11.dtd"><svg width="100%" height="100%" viewBox="0 0 360 252" version="1.1" xmlns="http://www.w3.org/2000/svg" xmlns:xlink="http://www.w3.org/1999/xlink" xml:space="preserve" xmlns:serif="http://www.serif.com/" style="fill-rule:evenodd;clip-rule:evenodd;stroke-linecap:round;stroke-linejoin:round;stroke-miterlimit:1.5;"><g id="Behance"></g><g id="Instagram"></g><path d="M41.842,25.782l276.737,0.41l-138.419,124.149l-138.318,-124.559Z" style="fill:none;stroke:#fff;stroke-width:12.59px;"/><path d="M28.169,34.396l111.901,99.984l-111.067,85.342c0,-0 -6.655,-6.618 -6.879,-14.683c-0.224,-8.064 -0.448,-159.05 -0.448,-159.05c-0,-0 0.442,-10.642 6.493,-11.593Z" style="fill:none;stroke:#fff;stroke-width:12.59px;"/><path d="M331.831,34.396l-111.901,99.984l111.067,85.342c-0,-0 6.655,-6.618 6.879,-14.683c0.224,-8.064 0.448,-159.05 0.448,-159.05c0,-0 -0.442,-10.642 -6.493,-11.593Z" style="fill:none;stroke:#fff;stroke-width:12.59px;"/><path d="M44.162,226.189l107.183,-81.605l28.865,26.265l28.339,-26.724l107.412,82.093l-271.799,-0.029Z" style="fill:none;stroke:#fff;stroke-width:12.59px;"/></svg>