<?xml version="1.0" encoding="UTF-8" standalone="no"?><!DOCTYPE svg PUBLIC "-//W3C//DTD SVG 1.1//EN" "http://www.w3.org/Graphics/SVG/1.1/DTD/svg11.dtd"><svg width="100%" height="100%" viewBox="0 0 3 3" version="1.1" xmlns="http://www.w3.org/2000/svg" xmlns:xlink="http://www.w3.org/1999/xlink" xml:space="preserve" xmlns:serif="http://www.serif.com/" style="fill-rule:evenodd;clip-rule:evenodd;stroke-linejoin:round;stroke-miterlimit:2;"><path d="M2.369,0.679c-0,-0.121 -0.099,-0.22 -0.221,-0.22l-1.872,-0c-0.122,-0 -0.221,0.099 -0.221,0.22c0,0.122 0.099,0.221 0.221,0.221l1.872,0c0.122,0 0.221,-0.099 0.221,-0.221Z"/><path d="M2.369,1.25c-0,-0.122 -0.099,-0.221 -0.221,-0.221l-1.872,0c-0.122,0 -0.221,0.099 -0.221,0.221c0,0.122 0.099,0.221 0.221,0.221l1.872,-0c0.122,-0 0.221,-0.099 0.221,-0.221Z"/><path d="M2.369,1.826c-0,-0.122 -0.099,-0.221 -0.221,-0.221l-1.872,0c-0.122,0 -0.221,0.099 -0.221,0.221c0,0.122 0.099,0.221 0.221,0.221l1.872,-0c0.122,-0 0.221,-0.099 0.221,-0.221Z"/></svg>