<svg id="Logo" xmlns="http://www.w3.org/2000/svg" viewBox="0 0 407 426.12"><defs><style>.cls-1,.cls-4{fill:#dc0029;}.cls-1,.cls-2,.cls-3{fill-rule:evenodd;}.cls-2{fill:#ff912a;}.cls-3,.cls-5{fill:#4315b3;}.cls-6{font-size:85.19px;font-family:Bauhaus93, "Bauhaus 93";}</style></defs><polygon class="cls-1" points="207.07 58.94 195.77 91.06 184.64 72.08 207.07 58.94"/><path class="cls-2" d="M70.59,89.66C68,86.56,65,84.92,62,84.91c-9.54,0-17.33,15.77-17.39,35.25s7.65,35.31,17.2,35.34c3,0,6-1.61,8.66-4.7Z"/><polygon class="cls-3" points="228.42 24 181.42 24 181.42 64 228.42 24"/><path class="cls-2" d="M16.42,237a27.85,27.85,0,0,1,16,5V160.17H.65v81.69A27.92,27.92,0,0,1,16.42,237Z"/><circle class="cls-4" cx="16.92" cy="258.5" r="16.5"/><polygon class="cls-1" points="128.42 1 128.42 23.13 66.3 23.13 66.3 66 33.42 66 33.42 1 128.42 1"/><polygon class="cls-1" points="240.42 156 227.2 95.72 264.67 125.88 240.42 156"/><rect class="cls-5" x="25.42" y="331" width="20" height="39"/><polygon class="cls-3" points="4.42 306 4.42 377 24.42 377 24.42 374 21.41 374 21.41 327 24.42 327 24.42 306 4.42 306"/><polygon class="cls-2" points="76.42 306 37.42 306 37.42 327 49.61 327 49.61 374 37.42 374 37.42 377 76.42 377 76.42 306"/><polygon class="cls-3" points="220.21 93.19 206.33 85.26 198.6 98.79 213.8 163.33 228.51 171.74 235.72 159.1 220.21 93.19"/><path class="cls-2" d="M33.56,120.74C33.62,101.26,41.41,85.47,51,85.5a9,9,0,0,1,1.47.14V85h-40v71H49.65C40.62,154.8,33.51,139.46,33.56,120.74Z"/><path class="cls-2" d="M52,156h.47v-.09Z"/><rect class="cls-5" x="0.14" y="84.72" width="8.28" height="26.12"/><rect class="cls-5" x="0.58" y="128.72" width="8.28" height="26.12"/><path class="cls-2" d="M143.42,1V32h-71V64h104V20h52V1Zm14,58a13,13,0,1,1,13-13A13,13,0,0,1,157.42,59Z"/><path class="cls-1" d="M244.42,377c-.25-17.72-13.58-32-30-32s-29.75,14.28-30,32Z"/><polygon class="cls-3" points="278.97 376.28 253.93 376.28 253.93 327.06 205.42 327.06 205.42 301 278.97 301 278.97 376.28"/><path class="cls-2" d="M277.42,212h-71v81h9.24a53.09,53.09,0,0,1,3.63-16.52,27.42,27.42,0,0,1-5.87-17v-15a27.5,27.5,0,0,1,55,0v15a27.5,27.5,0,0,1-21.93,26.93,63.79,63.79,0,0,1,.8,6.57h30.13Z"/><path class="cls-2" d="M257.42,252.5c0-15.74-7.39-28.5-16.5-28.5s-16.5,12.76-16.5,28.5a45.21,45.21,0,0,0,2.15,14.07,8.84,8.84,0,0,1,4.9-1.57c5.69,0,10.67,6,13.5,15.13C252.12,277,257.42,265.82,257.42,252.5Z"/><path class="cls-2" d="M240.92,287a27.62,27.62,0,0,0,5.57-.57,51.4,51.4,0,0,0-1.52-6.3,10,10,0,0,1-4.05.87c-6.15,0-11.51-5.82-14.35-14.43-2.86,1.88-5.37,5.35-7.28,9.91A27.47,27.47,0,0,0,240.92,287Z"/><polygon class="cls-1" points="227.93 197.85 255.46 168.91 268.53 168.91 277.42 176.14 277.42 129 206.42 206 277.42 206 277.42 197.85 227.93 197.85"/><polygon class="cls-3" points="278.14 182.75 267.39 174 258.69 174 240.38 193.25 278.14 193.25 278.14 182.75"/><path class="cls-3" d="M150.42,70h-10.5a80.5,80.5,0,0,1,10.5.7Z"/><path class="cls-3" d="M139.92,70H75.42v44.64C80.8,89.28,107.62,70,139.92,70Z"/><path class="cls-3" d="M80.42,301h10.5a100.2,100.2,0,0,0-10.5.56Z"/><path class="cls-3" d="M90.92,301h64.5v36C150,316.55,123.22,301,90.92,301Z"/><path class="cls-3" d="M162.42,329v16h-31c0,.33,0,.66,0,1a24,24,0,0,1-24,24c-.34,0-.67,0-1,0v6h71V329Z"/><path class="cls-1" d="M131.39,345a24,24,0,1,0-25,25V345Z"/><path class="cls-4" d="M231.4,68c.06-11,2-21,5-27.89l-14.9,1.54-8.48,19,12.2,16.84,20.69-2.15L249.18,68Z"/><path class="cls-4" d="M249.18,68l5.2-11.66L242.18,39.5l-5.78.61c-3,6.93-4.94,16.85-5,27.89Z"/><polygon class="cls-3" points="279.42 54 263.75 54 263.75 18.78 233.38 18.78 233.38 0.14 279.42 0.14 279.42 54"/><path class="cls-2" d="M280.74,90.81c0-9.74-9.71-17.66-21.75-17.8v20.4l-32.13-2,31.05,23.43,6.79-6.87C274,105.81,280.74,99,280.74,90.81Z"/><path class="cls-3" d="M74.66,220.21,62.41,210l-10,12,.52,9.76c1.35-1.7,2.88-2.66,4.49-2.66,5.52,0,10,11.19,10,25s-4.48,25-10,25a4.32,4.32,0,0,1-2-.5l.51,9.61,13,10.87,9.34-11.16Z"/><path class="cls-3" d="M47.42,254c0,12.11,3.44,22.2,8,24.5l-2.5-46.84C49.66,235.77,47.42,244.23,47.42,254Z"/><polygon class="cls-2" points="207.43 194.8 207.92 165.06 222.42 178 207.43 194.8"/><polygon class="cls-3" points="48.39 211.75 60.87 189.26 76.18 208.57 76.42 215.41 76.42 160 36.42 160 36.42 227 48.93 227 48.39 211.75"/><path class="cls-3" d="M14.45,4.87A22.85,22.85,0,0,1,.42,0V79.39H28.29V.16A22.9,22.9,0,0,1,14.45,4.87Z"/><path class="cls-2" d="M17.07,279.19a65,65,0,0,1-14-1.42V301H30.9V277.81A64.75,64.75,0,0,1,17.07,279.19Z"/><path class="cls-2" d="M247.19,339.46a10.49,10.49,0,0,1-6.67,9.77h11.36V329H236.69A10.5,10.5,0,0,1,247.19,339.46Z"/><path class="cls-2" d="M182.15,302v30.67a10.5,10.5,0,0,1,20.27,3.83V302Z"/><rect class="cls-4" x="162.42" y="302" width="15" height="20"/><path d="M6.18,387.31H9.59v26.23H33.31l-.63,2H6.18Z"/><path d="M78,405.43C78,411,73.13,416,63.73,416c-8.52,0-13.82-4.48-13.82-10.57,0-5.77,5-10.57,14.14-10.57C72.44,394.9,78,399.09,78,405.43Zm-24.73,0c0,4.8,4,8.67,10.72,8.67s10.67-3.59,10.67-8.67c0-4.76-3.79-8.68-10.79-8.68C56.66,396.79,53.26,400.63,53.26,405.47Z"/><path d="M101.59,385.82v12.95c1.77-2.1,4.86-3.87,10.41-3.87,4.48,0,10.67,1.45,10.67,7.83v12.82h-3.16V403.13c0-4-2.84-6.26-8.08-6.26-6.24,0-9.84,2.47-9.84,7.43v11.25H98.44V385.82Z"/><path d="M146.33,405.71c.06,5.2,4.17,8.43,10.22,8.43s7.95-2.14,9.09-3.79h3.22c-1.33,2.66-4.67,5.69-12.43,5.69-9.59,0-13.32-5.29-13.32-10.41,0-5.77,4.48-10.73,13.69-10.73,9.72,0,12.81,5.36,12.81,9.16a14.8,14.8,0,0,1-.06,1.65Zm20-1.77c-.06-4-3.47-7.15-9.65-7.15-6.5,0-9.47,2.91-10.16,7.15Zm.32-18.52-9.4,6.33h-3.41l8.64-6.33Z"/><path d="M186.4,413.7l19.94-16.42H187.41v-1.9H210v1.94l-19.69,16.34h20.38l-.75,1.89H186.4Z"/><path d="M229.62,385.82h3.16v3.91h-3.16Zm0,9.56h3.16v20.17h-3.16Z"/><path d="M279,409.62c-1.52,3.55-5.18,6.42-12.24,6.42-7.89,0-13.51-3.75-13.51-10.49,0-5.53,4.61-10.65,13.89-10.65,8,0,11.29,3.63,11.86,6.45h-3.22c-.95-2.34-3.34-4.56-8.71-4.56-6.69,0-10.47,3.64-10.47,8.68,0,4.8,3.53,8.67,10.16,8.67,4.6,0,7.38-1.49,9-4.52Z"/><g id="Noir"><text class="cls-6" transform="translate(90.81 266.49)">Ë</text><text class="cls-6" transform="translate(164.81 289.49)">L</text><text class="cls-6" transform="translate(91.33 154.38)">G</text><text class="cls-6" transform="translate(146.33 200.38)">A</text></g></svg>