<svg id="Calque_1" data-name="Calque 1" xmlns="http://www.w3.org/2000/svg" viewBox="0 0 468.24 694.27"><defs><style>.cls-1,.cls-4{fill:#dc0b2b;}.cls-1,.cls-2,.cls-3{fill-rule:evenodd;}.cls-2{fill:#f28f34;}.cls-3,.cls-5{fill:#41388e;}.cls-6{fill:none;}.cls-7,.cls-8{fill:#010101;}.cls-8{font-size:119.71px;font-family:Monoton-Regular, Monoton;}</style></defs><polygon class="cls-1" points="345.31 98.35 326.45 151.97 307.88 120.29 345.31 98.35"/><path class="cls-2" d="M181.83,230.78c-4.37-5.18-9.34-7.91-14.41-7.93-15.92,0-28.93,26.31-29,58.82s12.77,58.93,28.7,59c5.06,0,10.05-2.7,14.45-7.85Z" transform="translate(-64.28 -81.15)"/><polygon class="cls-3" points="380.94 40.05 302.51 40.05 302.51 106.8 380.94 40.05"/><path class="cls-2" d="M91.44,476.65A46.51,46.51,0,0,1,118.13,485V348.44h-53V484.77A46.5,46.5,0,0,1,91.44,476.65Z" transform="translate(-64.28 -81.15)"/><circle class="cls-4" cx="27.99" cy="431.38" r="27.53"/><polygon class="cls-1" points="214.06 1.67 214.06 38.59 110.41 38.59 110.41 110.14 55.53 110.14 55.53 1.67 214.06 1.67"/><polygon class="cls-1" points="400.96 260.33 378.91 159.73 441.43 210.06 400.96 260.33"/><rect class="cls-5" x="42.18" y="552.36" width="33.38" height="65.08"/><polygon class="cls-3" points="7.13 510.64 7.13 629.13 40.51 629.13 40.51 624.12 35.49 624.12 35.49 545.69 40.51 545.69 40.51 510.64 7.13 510.64"/><polygon class="cls-2" points="127.29 510.64 62.2 510.64 62.2 545.69 82.54 545.69 82.54 624.12 62.2 624.12 62.2 629.13 127.29 629.13 127.29 510.64"/><line class="cls-6" x1="332.54" y1="166.88" x2="332.54" y2="166.88"/><line class="cls-6" x1="365.92" y1="288.7" x2="367.59" y2="288.7"/><polygon class="cls-3" points="367.24 155.51 344.08 142.29 331.19 164.86 356.54 272.57 381.09 286.59 393.13 265.5 367.24 155.51"/><path class="cls-2" d="M120,282.64c.1-32.5,13.1-58.86,29-58.81a14.31,14.31,0,0,1,2.44.24V223H84.76V341.48h62.13C131.83,339.49,120,313.88,120,282.64Z" transform="translate(-64.28 -81.15)"/><path class="cls-2" d="M150.72,341.48h.79v-.16C151.25,341.38,151,341.44,150.72,341.48Z" transform="translate(-64.28 -81.15)"/><rect class="cls-5" y="141.38" width="13.81" height="43.58"/><rect class="cls-5" x="0.73" y="214.81" width="13.81" height="43.58"/><path class="cls-2" d="M303.37,82.82v51.73H184.89V188H358.44V114.53h86.78V82.82Zm23.36,96.79a21.7,21.7,0,1,1,21.7-21.69A21.69,21.69,0,0,1,326.73,179.61Z" transform="translate(-64.28 -81.15)"/><path class="cls-1" d="M471.92,710.28c-.42-29.57-22.66-53.4-50.06-53.4s-49.64,23.83-50.05,53.4Z" transform="translate(-64.28 -81.15)"/><polygon class="cls-3" points="465.3 627.93 423.52 627.93 423.52 545.79 342.56 545.79 342.56 502.3 465.3 502.3 465.3 627.93"/><path class="cls-2" d="M527,434.93H408.5V570.1h15.42A88.31,88.31,0,0,1,430,542.53a45.63,45.63,0,0,1-9.81-28.33v-25a45.9,45.9,0,0,1,91.79,0v25a45.91,45.91,0,0,1-36.6,44.95,100.87,100.87,0,0,1,1.33,11H527Z" transform="translate(-64.28 -81.15)"/><path class="cls-2" d="M493.61,502.52c0-26.27-12.33-47.56-27.54-47.56s-27.53,21.29-27.53,47.56A75.55,75.55,0,0,0,442.13,526a14.83,14.83,0,0,1,8.18-2.61c9.48,0,17.8,10.08,22.53,25.25C484.77,543.42,493.61,524.75,493.61,502.52Z" transform="translate(-64.28 -81.15)"/><path class="cls-2" d="M466.07,560.09a46.64,46.64,0,0,0,9.3-.94,86.2,86.2,0,0,0-2.53-10.52,16.91,16.91,0,0,1-6.77,1.45c-10.26,0-19.2-9.71-23.94-24.09-4.78,3.14-9,8.93-12.14,16.54A45.79,45.79,0,0,0,466.07,560.09Z" transform="translate(-64.28 -81.15)"/><polygon class="cls-1" points="380.13 330.17 426.06 281.88 447.88 281.88 462.71 293.94 462.71 215.27 344.23 343.77 462.71 343.77 462.71 330.17 380.13 330.17"/><polygon class="cls-3" points="463.92 304.96 445.97 290.37 431.45 290.37 400.9 322.49 463.92 322.49 463.92 304.96"/><path class="cls-3" d="M315.05,198H297.53a134.37,134.37,0,0,1,17.52,1.16Z" transform="translate(-64.28 -81.15)"/><path class="cls-3" d="M297.53,198H189.89v74.5C198.87,230.15,243.62,198,297.53,198Z" transform="translate(-64.28 -81.15)"/><path class="cls-3" d="M198.24,583.45h17.52a164.65,164.65,0,0,0-17.52.94Z" transform="translate(-64.28 -81.15)"/><path class="cls-3" d="M215.76,583.45H323.39v60.08C314.42,609.4,269.66,583.45,215.76,583.45Z" transform="translate(-64.28 -81.15)"/><path class="cls-3" d="M335.08,630.18v26.7H283.3c0,.55,0,1.11,0,1.67a40,40,0,0,1-40,40.05c-.56,0-1.11,0-1.67,0v10.05H360.11V630.18Z" transform="translate(-64.28 -81.15)"/><path class="cls-1" d="M283.3,656.88a40,40,0,1,0-41.68,41.68V656.88Z" transform="translate(-64.28 -81.15)"/><path class="cls-4" d="M450.19,194.63c.11-18.43,3.31-35,8.35-46.55l-24.87,2.58-14.15,31.69,20.36,28.09,34.52-3.59,5.46-12.22Z" transform="translate(-64.28 -81.15)"/><path class="cls-4" d="M479.86,194.63l8.69-19.46-20.37-28.09-9.64,1c-5,11.58-8.24,28.12-8.35,46.55Z" transform="translate(-64.28 -81.15)"/><polygon class="cls-3" points="466.05 90.11 439.89 90.11 439.89 31.35 389.22 31.35 389.22 0.23 466.05 0.23 466.05 90.11"/><path class="cls-2" d="M532.52,232.7c0-16.26-16.19-29.47-36.28-29.72V237l-53.63-3.42,51.81,39.11,11.34-11.47C521.2,257.72,532.52,246.29,532.52,232.7Z" transform="translate(-64.28 -81.15)"/><path class="cls-3" d="M188.63,448.63l-20.44-17.12L151.5,451.45l.87,16.29c2.25-2.83,4.79-4.44,7.49-4.44,9.21,0,16.68,18.68,16.68,41.72s-7.47,41.72-16.68,41.72a7.32,7.32,0,0,1-3.32-.83l.85,16,21.68,18.14,15.58-18.61Z" transform="translate(-64.28 -81.15)"/><path class="cls-3" d="M143.17,505c0,20.2,5.74,37.05,13.37,40.89l-4.17-78.17C146.91,474.6,143.17,488.71,143.17,505Z" transform="translate(-64.28 -81.15)"/><polygon class="cls-2" points="345.91 325.07 346.74 275.45 370.93 297.04 345.91 325.07"/><polygon class="cls-3" points="80.51 353.35 101.34 315.83 126.88 348.05 127.29 359.47 127.29 267 60.53 267 60.53 378.81 81.41 378.81 80.51 353.35"/><path class="cls-3" d="M88.15,89.28a38.15,38.15,0,0,1-23.41-8.13V213.64h46.5V81.41A38.08,38.08,0,0,1,88.15,89.28Z" transform="translate(-64.28 -81.15)"/><path class="cls-2" d="M92.52,547.07a109.11,109.11,0,0,1-23.42-2.38v38.76h46.5V544.76A109.21,109.21,0,0,1,92.52,547.07Z" transform="translate(-64.28 -81.15)"/><path class="cls-2" d="M476.54,647.64a17.53,17.53,0,0,1-11.13,16.3h19V630.11H459A17.53,17.53,0,0,1,476.54,647.64Z" transform="translate(-64.28 -81.15)"/><path class="cls-2" d="M368,585.12V636.3a17.52,17.52,0,0,1,33.83,6.39V585.12Z" transform="translate(-64.28 -81.15)"/><rect class="cls-4" x="270.8" y="503.97" width="25.03" height="33.38"/><path class="cls-7" d="M74.36,727.49H80v43.76h39.6l-1.06,3.37H74.36Z" transform="translate(-64.28 -81.15)"/><path class="cls-7" d="M194.19,757.72c0,9.36-8.11,17.71-23.8,17.71-14.21,0-23.06-7.48-23.06-17.64,0-9.63,8.32-17.64,23.59-17.64C184.92,740.15,194.19,747.15,194.19,757.72Zm-41.28.07c0,8,6.74,14.47,17.9,14.47,11.38,0,17.8-6,17.8-14.47,0-7.95-6.32-14.48-18-14.48C158.6,743.31,152.91,749.71,152.91,757.79Z" transform="translate(-64.28 -81.15)"/><path class="cls-7" d="M233.57,725v21.61c3-3.5,8.11-6.46,17.38-6.46,7.47,0,17.79,2.42,17.79,13.06v21.41h-5.26V753.88c0-6.66-4.74-10.43-13.48-10.43-10.43,0-16.43,4.11-16.43,12.39v18.78h-5.26V725Z" transform="translate(-64.28 -81.15)"/><path class="cls-7" d="M308.23,758.19c.11,8.69,6.95,14.07,17.06,14.07,9.9,0,13.27-3.56,15.16-6.33h5.37c-2.21,4.45-7.79,9.5-20.74,9.5-16,0-22.22-8.82-22.22-17.37,0-9.63,7.48-17.91,22.85-17.91,16.22,0,21.38,9,21.38,15.28a22.5,22.5,0,0,1-.11,2.76Zm33.38-3c-.1-6.66-5.79-11.92-16.11-11.92-10.84,0-15.79,4.85-16.95,11.92Zm.53-30.9L326.45,734.9h-5.69l14.43-10.57Z" transform="translate(-64.28 -81.15)"/><path class="cls-7" d="M375.1,771.52l33.27-27.4H376.78V741h37.7v3.23l-32.85,27.27h34l-1.26,3.16H375.1Z" transform="translate(-64.28 -81.15)"/><path class="cls-7" d="M447.23,725h5.26v6.53h-5.26Zm0,16h5.26v33.66h-5.26Z" transform="translate(-64.28 -81.15)"/><path class="cls-7" d="M529.58,764.72c-2.53,5.93-8.64,10.71-20.43,10.71-13.17,0-22.54-6.26-22.54-17.51,0-9.22,7.69-17.77,23.17-17.77,13.37,0,18.85,6.06,19.8,10.77H524.2c-1.58-3.9-5.58-7.61-14.53-7.61-11.16,0-17.48,6.06-17.48,14.48,0,8,5.9,14.47,17,14.47,7.68,0,12.32-2.49,15.05-7.54Z" transform="translate(-64.28 -81.15)"/><g id="Noir"><text class="cls-8" transform="translate(139.62 444.78)">Ë</text><text class="cls-8" transform="translate(241.93 482.11)">L</text><text class="cls-8" transform="translate(138.68 260.55)">G</text><text class="cls-8" transform="translate(232.65 343.54)">A</text></g></svg>