<?xml version="1.0" encoding="UTF-8" standalone="no"?><!DOCTYPE svg PUBLIC "-//W3C//DTD SVG 1.1//EN" "http://www.w3.org/Graphics/SVG/1.1/DTD/svg11.dtd"><svg width="100%" height="100%" viewBox="0 0 550 200" version="1.1" xmlns="http://www.w3.org/2000/svg" xmlns:xlink="http://www.w3.org/1999/xlink" xml:space="preserve" xmlns:serif="http://www.serif.com/" style="fill-rule:evenodd;clip-rule:evenodd;stroke-linejoin:round;stroke-miterlimit:2;"><path d="M507.765,77.64c-0,-10.775 -8.748,-19.522 -19.522,-19.522l-384.044,-0c-10.775,-0 -19.523,8.747 -19.523,19.522l0,39.044c0,10.774 8.748,19.522 19.523,19.522l384.044,-0c10.774,-0 19.522,-8.748 19.522,-19.522l-0,-39.044Z" style="fill:#fff;"/><g transform="matrix(1.94931,0,0,1.94931,-88.8562,-588.111)"><text x="254.853px" y="360.882px" style="font-family:'Knewave-Regular', 'Knewave';font-size:12px;fill:#d93a3a;">20</text><text x="254.853px" y="372.882px" style="font-family:'Knewave-Regular', 'Knewave';font-size:12px;fill:#d93a3a;">22</text></g><g transform="matrix(1.94931,0,0,1.94931,-335.875,-629.975)"><text x="254.853px" y="360.882px" style="font-family:'Knewave-Regular', 'Knewave';font-size:12px;fill:#d93a3a;">20</text><text x="254.853px" y="372.882px" style="font-family:'Knewave-Regular', 'Knewave';font-size:12px;fill:#d93a3a;">22</text></g><text x="15.766px" y="30.172px" style="font-family:'Kodchasan-Regular', 'Kodchasan';font-size:23.392px;fill:#fff;">Bac spé Ma<tspan x="151.134px " y="30.172px ">t</tspan>héma<tspan x="223.344px " y="30.172px ">t</tspan>iques e<tspan x="316.396px " y="30.172px ">t</tspan> SES</text><text x="325.472px" y="187.231px" style="font-family:'Kodchasan-Regular', 'Kodchasan';font-size:23.392px;fill:#fff;">But MMI L<tspan x="446.22px " y="187.231px ">a</tspan>nnio<tspan x="508.676px " y="187.231px ">n</tspan></text></svg>