<?xml version="1.0" encoding="UTF-8" standalone="no"?><!DOCTYPE svg PUBLIC "-//W3C//DTD SVG 1.1//EN" "http://www.w3.org/Graphics/SVG/1.1/DTD/svg11.dtd"><svg width="100%" height="100%" viewBox="0 0 369 418" version="1.1" xmlns="http://www.w3.org/2000/svg" xmlns:xlink="http://www.w3.org/1999/xlink" xml:space="preserve" xmlns:serif="http://www.serif.com/" style="fill-rule:evenodd;clip-rule:evenodd;stroke-linejoin:round;stroke-miterlimit:2;"><path d="M-15.437,255.91c0,0 17.234,47.084 53.726,78.408c8.064,6.923 22.63,3.606 33.831,9.144c16.61,8.213 30.237,23.024 40.091,15.194c43.654,-34.688 89.779,-5.955 100.646,0.822c13.819,8.618 87.071,38.086 96.771,29.736c22.93,-19.739 79.973,22.047 90.405,-5.9c10.433,-27.946 -24.547,54.25 -24.547,54.25l-390.215,0l-0.708,-181.654" style="fill:#423f3e;"/><path d="M139.271,333.254c-0,0 -0.419,2.76 1.32,2.46c-0,0 0.863,0.987 1.846,1.101c-0,0 3.644,2.601 5.53,-0.732c-0,0 3.63,-5.876 4.069,-7.617c-0,0 4.973,-6.011 8.537,-7.159c-0,0 6.296,-0.845 7.766,-0.644c-0,0 6.853,-1.239 8.329,-5.085c-0,0 2.502,-5.796 5.147,-6.89c-0,0 2.936,-1.669 6.574,-0.607c-0,0 1.648,1.834 1.4,2.166l-0.248,0.332l1.927,0.975l-0.118,0.481l0.452,0.457c-0,0 2.538,1.241 2.426,1.692c-0,0 0.55,0.256 -0.092,0.862c-0,0 -0.284,1.926 -0.955,1.994l0.25,0.704c-0,0 -0.375,1.91 -1.287,1.746l-1.576,-0.66c-0,0 -0.317,0.194 0.186,0.536l1.112,2.02c-0,0 -0.389,6.874 -1.464,7.968c-0,0 -5.228,4.466 -6.304,5.214l-0.355,0.752l1.005,4.01l-0.359,2.697l0.994,2.847c-0,0 0.807,1.274 1.497,0.928c-0,0 1.098,0.175 1.059,1.791c-0,0 -4.718,-0.292 -6.148,-0.895c-0,0 -0.569,0.023 0.055,-2.752l-0.72,-1.228l0.194,-0.906l-1.442,-4.371c-0,0 -0.872,0.659 -1.066,0.342c-0,0 -3.019,6.142 -0.998,8.169l0.498,0.372c-0,0 1.207,0.091 0.919,0.824l0.715,1.259c-0,0 -0.063,0.522 -0.337,0.127l-0.274,-0.394c-0,0 0.148,1.094 -0.22,0.525c-0,0 -0.35,0.377 -0.854,0.035c-0,0 -0.798,0.076 -0.89,-0.286c-0,0 -0.731,0.748 -1.017,0.069c-0,0 -2.73,-0.177 -2.508,-1.236c-0,0 -0.641,0.073 -0.15,-3.009l-0.348,-0.156l0.738,-2.535c-0,0 -0.454,-1.84 0.33,-3.927c-0,0 0.091,-1.553 -0.761,-1.706c-0,0 -2.846,-2.85 -5.172,-2.829c-0,0 1.304,2.526 -1.406,3.106l-4.902,2.477c-0,0 -2.129,0.495 -1.301,1.303l1.064,1.416c-0,0 0.405,0.889 1.335,0.773c-0,0 1.94,0.035 1.823,0.862l0.925,1.139l-6.229,-0.618c-0,0 -1.692,-3.505 -3.449,-4.731c-0,0 -0.524,-0.754 0.627,-1.394l1.599,-0.686l1.473,-1.21l-0.021,-0.757l-2.212,1.831l-5.393,1.541c-0,0 -3.167,2.6 -0.646,4.466l0.583,0.419l-0.076,0.425l0.528,0.378l-0.023,0.655l-0.365,-0.066l-0.475,0.197l-0.121,0.324l-0.28,-0.364l-1.273,-0.073l-0.066,0.365l-0.284,-0.427l-0.677,-0.248c-0,0 -1.373,0.475 -2.633,-1.069l0.316,-0.885l-0.614,-0.424l0.659,-0.698l0.166,-1.1l2.425,-4.931c-0,0 5.246,-0.727 5.797,-6.93c-0,0 -3.918,3.289 -4.828,6.076c-0,0 -1.344,4.968 -7.58,5.196c-0,0 -2.603,-0.248 -2.87,-0.861l0.707,-0.093c-0,0 -2.647,-1.04 -1.515,-5.215" style="fill:#423f3e;"/><path d="M22.561,323.661l4.616,-7.202l0.029,-1.726l1.202,-1.076l-5.974,-1.007l-0.047,-0.646l2.851,-0.687l-4.529,-3.262l0.443,-0.691l4.036,1.15l2.703,-0.936l-5.955,-3.919l6.018,0.059l2.653,-0.698l-3.216,-2.267l5.223,-1.424l-1.746,-1.119l0.357,-0.798l4.707,1.144l6.357,-5.035l-1.799,7.931l1.953,5.92l-0.638,0.515l-2.683,-2.54l0.055,3.678l1.546,3.352l-0.489,0.764l-2.725,-2.875l0.793,4.767l-2.798,-1.639l1.757,5.026l-6.83,-3.916l-4.017,6.508l-0.553,1.904l-1.679,1.899c0,0 -2.176,-1.009 -1.621,-1.154Z" style="fill:#423f3e;"/></svg>