<?xml version="1.0" encoding="UTF-8"?>
<svg id="Calque_2" data-name="Calque 2" xmlns="http://www.w3.org/2000/svg" xmlns:xlink="http://www.w3.org/1999/xlink" viewBox="0 0 50 50">
  <defs>
    <style>
      .cls-1 {
        stroke: #ed75fe;
      }

      .cls-1, .cls-2, .cls-3 {
        fill: none;
      }

      .cls-1, .cls-3 {
        stroke-linecap: round;
        stroke-linejoin: round;
        stroke-width: 1.96px;
      }

      .cls-4, .cls-5 {
        fill: #fff;
      }

      .cls-5 {
        fill-rule: evenodd;
      }

      .cls-3 {
        stroke: #7e4dd1;
      }

      .cls-6 {
        clip-path: url(#clippath);
      }
    </style>
    <clipPath id="clippath">
      <rect class="cls-2" x="1.39" y="1.37" width="47.35" height="47.35"/>
    </clipPath>
  </defs>
  <g id="Photo">
    <rect class="cls-4" x="1.39" y="1.37" width="47.35" height="47.35"/>
    <g class="cls-6">
      <line class="cls-3" x1="11.71" y1="26.29" x2="25.5" y2="48.32"/>
      <line class="cls-3" x1="48.55" y1="33.8" x2="15.96" y2="33.71"/>
      <line class="cls-3" x1="25.64" y1="17.03" x2="9.11" y2="16.99"/>
      <line class="cls-3" x1="1.41" y1="41.94" x2="15.72" y2="17.52"/>
      <line class="cls-3" x1="1.41" y1="29.06" x2="17.59" y2="1.44"/>
      <line class="cls-3" x1="29.67" y1="26.65" x2="47.06" y2=".7"/>
      <line class="cls-3" x1="29.86" y1="24.54" x2="17.53" y2="2.02"/>
    </g>
    <rect class="cls-1" x="1.39" y="1.37" width="47.35" height="47.35"/>
    <polygon class="cls-5" points="11.18 25.39 16.01 17.02 25.66 17.02 30.49 25.39 25.66 33.75 16.01 33.75 11.18 25.39"/>
    <polygon class="cls-3" points="11.18 25.39 16.01 17.02 25.66 17.02 30.49 25.39 25.66 33.75 16.01 33.75 11.18 25.39"/>
  </g>
</svg>