<?xml version="1.0" encoding="UTF-8"?>
<svg id="Calque_2" data-name="Calque 2" xmlns="http://www.w3.org/2000/svg" viewBox="0 0 50 50">
  <defs>
    <style>
      .cls-1 {
        fill: #fff;
      }

      .cls-2 {
        fill: none;
        stroke: #203264;
        stroke-width: 1.19px;
      }

      .cls-2, .cls-3 {
        stroke-miterlimit: 10;
      }

      .cls-3 {
        stroke: #fff;
        stroke-width: 1.2px;
      }

      .cls-3, .cls-4 {
        fill: #f20017;
      }
    </style>
  </defs>
  <g id="EN">
    <polygon class="cls-1" points="28.74 22.7 44.9 9.73 49.09 10.11 49.22 14.28 34.58 26.27 28.21 26.27 28.74 22.7"/>
    <polygon class="cls-1" points=".99 45 17.14 32.03 21.33 32.41 21.46 36.58 6.83 48.56 .46 48.56 .99 45"/>
    <polygon class="cls-1" points="32.1 31.18 48.99 44.09 48.54 48.56 44.48 49.53 29.79 37.62 28.5 31.38 32.1 31.18"/>
    <polygon class="cls-4" points="28.21 24.6 45.5 10.64 49.54 10.42 27.76 28.09 28.21 24.6"/>
    <polygon class="cls-1" points=".61 11.4 19.11 26.42 23.97 26.12 23.66 20.81 9.25 9.89 .85 10.11 .61 11.4"/>
    <polygon class="cls-4" points="22.24 34.84 4.95 48.79 .91 49.02 22.7 31.35 22.24 34.84"/>
    <polygon class="cls-4" points="28.21 24.6 45.5 10.64 49.54 10.42 27.76 28.09 28.21 24.6"/>
    <polygon class="cls-4" points="22.54 24.6 5.25 10.64 1.21 10.42 23 28.09 22.54 24.6"/>
    <polygon class="cls-4" points="22.24 34.84 4.95 48.79 .91 49.02 22.7 31.35 22.24 34.84"/>
    <polygon class="cls-4" points="27.76 34.69 45.05 48.64 49.09 48.87 27.3 31.2 27.76 34.69"/>
    <g id="France">
      <polygon class="cls-3" points="49.07 25.03 49.07 34.35 29.74 34.35 29.74 49.25 20.28 49.25 20.28 34.35 .83 34.35 .83 25.03 20.28 25.03 20.28 10.13 29.74 10.13 29.74 25.03 49.07 25.03"/>
    </g>
    <g id="France-2" data-name="France">
      <rect class="cls-2" x=".85" y="10.11" width="48.23" height="39.13"/>
    </g>
  </g>
</svg>