<?xml version="1.0" encoding="UTF-8"?>
<svg id="Calque_2" data-name="Calque 2" xmlns="http://www.w3.org/2000/svg" viewBox="0 0 50 50">
  <defs>
    <style>
      .cls-1 {
        stroke: #1abcfe;
      }

      .cls-1, .cls-2, .cls-3, .cls-4, .cls-5 {
        fill: none;
        fill-rule: evenodd;
        stroke-miterlimit: 10;
        stroke-width: 1.7px;
      }

      .cls-2 {
        stroke: #ff7262;
      }

      .cls-3 {
        stroke: #f24e1e;
      }

      .cls-4 {
        stroke: #a259ff;
      }

      .cls-5 {
        stroke: #0acf83;
      }
    </style>
  </defs>
  <g id="Figma">
    <path class="cls-1" d="M34.21,17.47c4.33,0,7.84,3.51,7.84,7.84s-3.51,7.84-7.84,7.84-7.84-3.51-7.84-7.84,3.51-7.84,7.84-7.84Z"/>
    <path class="cls-3" d="M8.74,9.18c0,4.37,3.57,7.93,7.96,7.93.18,0,.36,0,.53-.02h9.1s0-15.8,0-15.8h-8.86c-.25-.03-.51-.04-.77-.04-4.4,0-7.96,3.55-7.96,7.93Z"/>
    <path class="cls-2" d="M43.97,9.18c0,4.37-3.57,7.93-7.96,7.93-.18,0-.36,0-.53-.02h-9.1V1.29h8.86c.25-.03.51-.04.77-.04,4.4,0,7.96,3.55,7.96,7.93Z"/>
    <path class="cls-4" d="M26.37,17.09v15.8h-8.87c-.25.03-.51.04-.77.04-4.39,0-7.96-3.55-7.96-7.93s3.57-7.93,7.96-7.93c.18,0,.36,0,.53.02h9.11Z"/>
    <path class="cls-5" d="M26.37,40.37c0,.14.01.29.01.44,0,4.38-3.57,7.93-7.96,7.93s-7.96-3.55-7.96-7.93,3.56-7.91,7.94-7.93h7.99s-.01,7.49-.01,7.49Z"/>
  </g>
</svg>